<svg id="svg" version="1.1" xmlns="http://www.w3.org/2000/svg" xmlns:xlink="http://www.w3.org/1999/xlink" width="400" height="394.11764705882354" viewBox="0, 0, 400,394.11764705882354"><g id="svgg"><path id="path0" d="M236.128 28.286 C 235.780 29.307,235.075 30.594,234.561 31.146 C 234.047 31.698,233.408 32.860,233.141 33.728 C 232.875 34.596,232.156 36.212,231.544 37.320 C 230.932 38.428,230.309 39.988,230.160 40.785 C 230.010 41.583,229.452 42.877,228.921 43.660 C 228.389 44.444,227.597 46.038,227.161 47.203 C 226.725 48.369,225.939 49.833,225.413 50.458 C 224.888 51.082,224.458 51.783,224.458 52.016 C 224.458 52.675,223.182 55.338,222.448 56.213 C 222.084 56.647,221.492 58.030,221.134 59.286 C 220.775 60.542,220.164 61.887,219.776 62.275 C 219.388 62.664,218.758 63.944,218.378 65.120 C 217.997 66.296,217.289 67.702,216.805 68.245 C 216.321 68.787,215.619 70.247,215.244 71.488 C 214.869 72.730,214.248 73.973,213.865 74.250 C 213.482 74.527,212.874 75.801,212.514 77.081 C 212.154 78.361,211.429 80.047,210.903 80.828 C 210.377 81.609,209.728 82.959,209.461 83.826 C 209.194 84.694,208.541 85.985,208.011 86.696 C 207.480 87.406,206.775 88.784,206.443 89.757 C 206.111 90.731,205.527 91.748,205.145 92.017 C 204.763 92.285,204.149 93.546,203.779 94.818 C 203.410 96.090,202.677 97.782,202.150 98.579 C 201.623 99.375,200.924 100.928,200.597 102.030 C 200.269 103.132,199.648 104.483,199.215 105.033 C 198.783 105.583,198.097 106.808,197.691 107.756 C 197.284 108.703,196.662 109.719,196.308 110.013 C 195.953 110.308,195.301 111.721,194.858 113.154 C 194.416 114.587,193.647 116.474,193.150 117.347 C 192.653 118.220,191.934 119.781,191.552 120.816 C 191.169 121.850,190.604 122.949,190.297 123.257 C 189.989 123.564,189.406 124.582,189.002 125.518 C 188.598 126.453,187.890 127.557,187.428 127.970 C 186.966 128.384,186.588 129.043,186.588 129.435 C 186.588 130.487,185.088 134.311,184.258 135.372 C 183.863 135.878,183.242 137.320,182.878 138.576 C 182.515 139.832,181.891 141.186,181.491 141.585 C 181.092 141.985,180.462 143.226,180.091 144.343 C 179.719 145.461,179.022 146.858,178.540 147.448 C 178.058 148.038,177.454 149.250,177.196 150.140 C 176.939 151.031,176.296 152.397,175.768 153.175 C 175.240 153.953,174.496 155.578,174.116 156.786 C 173.735 157.995,173.127 159.301,172.765 159.689 C 172.404 160.078,171.799 161.324,171.422 162.458 C 171.046 163.593,170.343 165.004,169.861 165.594 C 169.378 166.184,168.661 167.554,168.266 168.639 C 167.871 169.724,167.223 170.971,166.826 171.410 C 166.429 171.850,165.742 173.382,165.299 174.815 C 164.857 176.248,164.239 177.632,163.926 177.892 C 163.614 178.151,162.985 179.483,162.530 180.852 C 162.075 182.220,161.375 183.636,160.975 183.998 C 160.576 184.359,159.871 185.691,159.409 186.958 C 158.947 188.225,158.304 189.482,157.979 189.752 C 157.654 190.021,157.018 191.458,156.567 192.944 C 156.115 194.431,155.433 196.049,155.051 196.541 C 154.669 197.033,154.060 198.323,153.696 199.408 C 153.332 200.493,152.508 202.078,151.863 202.930 C 151.218 203.782,150.690 204.759,150.690 205.101 C 150.690 205.443,150.080 206.582,149.333 207.632 C 148.586 208.682,147.859 210.101,147.718 210.786 C 147.576 211.471,146.958 212.935,146.346 214.040 C 145.733 215.144,145.040 216.762,144.804 217.635 C 144.569 218.509,143.865 219.868,143.239 220.656 C 142.612 221.444,141.991 222.666,141.857 223.371 C 141.723 224.077,141.197 225.175,140.688 225.812 L 139.762 226.968 137.936 225.898 C 135.933 224.724,135.599 224.251,134.479 220.995 C 134.062 219.784,133.479 218.514,133.183 218.173 C 132.666 217.580,132.079 215.945,131.603 213.774 C 131.479 213.213,130.852 212.091,130.208 211.281 C 129.564 210.471,128.828 209.155,128.573 208.356 C 128.317 207.557,127.778 206.540,127.374 206.096 C 126.970 205.651,126.305 204.320,125.895 203.137 C 125.485 201.954,124.791 200.365,124.351 199.606 C 123.911 198.846,123.251 197.166,122.884 195.873 C 122.517 194.579,121.805 193.031,121.300 192.431 C 120.796 191.832,120.164 190.671,119.895 189.852 C 119.627 189.033,118.988 187.810,118.475 187.135 C 117.963 186.460,117.250 185.040,116.891 183.979 C 116.533 182.919,115.848 181.430,115.369 180.671 C 114.891 179.911,114.273 178.402,113.996 177.318 C 113.719 176.233,113.166 174.982,112.768 174.537 C 112.370 174.093,111.691 172.705,111.261 171.452 C 110.830 170.200,110.072 168.678,109.578 168.069 C 109.083 167.461,108.382 166.419,108.020 165.754 C 107.306 164.441,105.596 163.774,102.761 163.701 C 95.846 163.525,5.500 163.742,4.993 163.936 C 4.405 164.162,4.339 165.367,4.339 175.979 L 4.339 187.771 47.041 187.780 C 88.297 187.788,89.800 187.814,91.412 188.546 C 93.066 189.297,94.670 191.271,94.673 192.559 C 94.674 192.915,95.268 194.068,95.993 195.123 C 96.718 196.178,97.536 197.751,97.812 198.619 C 98.087 199.487,98.719 200.910,99.217 201.780 C 99.714 202.651,100.410 204.360,100.765 205.578 C 101.119 206.796,101.750 208.101,102.167 208.479 C 102.585 208.857,103.222 210.077,103.583 211.190 C 103.945 212.304,104.581 213.590,104.997 214.047 C 105.413 214.505,106.113 215.826,106.553 216.983 C 106.993 218.140,107.692 219.564,108.106 220.146 C 108.521 220.728,109.129 222.234,109.456 223.492 C 109.784 224.751,110.386 226.148,110.795 226.598 C 111.204 227.048,111.923 228.465,112.394 229.748 C 112.866 231.030,113.682 232.591,114.209 233.217 C 114.736 233.843,115.366 235.096,115.610 236.000 C 115.853 236.905,116.393 238.078,116.810 238.608 C 117.227 239.138,117.836 240.493,118.163 241.618 C 118.490 242.744,119.262 244.459,119.877 245.429 C 120.492 246.399,121.198 247.803,121.445 248.547 C 121.693 249.292,122.426 250.700,123.076 251.677 C 123.726 252.653,124.258 253.732,124.259 254.074 C 124.260 254.417,124.773 255.482,125.399 256.441 C 126.026 257.401,126.840 259.250,127.208 260.552 C 127.577 261.854,128.206 263.274,128.606 263.708 C 129.007 264.142,129.641 265.605,130.017 266.959 C 130.463 268.569,131.006 269.622,131.585 270.001 C 132.072 270.320,132.765 271.466,133.124 272.547 C 133.483 273.627,134.098 274.921,134.491 275.421 C 134.884 275.922,135.531 277.367,135.930 278.634 C 137.258 282.851,139.906 283.414,140.590 279.625 C 140.732 278.834,141.270 277.565,141.785 276.807 C 142.300 276.049,143.001 274.464,143.343 273.286 C 143.686 272.109,144.318 270.826,144.748 270.437 C 145.178 270.048,145.825 268.819,146.186 267.705 C 146.547 266.592,147.257 265.235,147.764 264.690 C 148.271 264.145,149.053 262.508,149.503 261.054 C 149.952 259.599,150.555 258.270,150.843 258.100 C 151.130 257.930,151.676 256.815,152.056 255.621 C 152.436 254.428,153.139 252.830,153.619 252.071 C 154.098 251.312,154.801 249.903,155.180 248.942 C 155.560 247.980,156.273 246.713,156.766 246.128 C 157.259 245.542,157.889 244.255,158.165 243.269 C 158.441 242.283,159.003 241.115,159.414 240.673 C 159.825 240.232,160.606 238.465,161.148 236.747 C 161.691 235.029,162.391 233.411,162.703 233.152 C 163.015 232.893,163.554 231.828,163.900 230.785 C 164.246 229.743,164.853 228.597,165.248 228.240 C 165.643 227.882,166.273 226.841,166.649 225.925 C 167.024 225.010,167.832 223.284,168.443 222.091 C 169.054 220.897,169.748 219.191,169.985 218.299 C 170.222 217.406,170.837 216.055,171.353 215.295 C 171.868 214.536,172.500 213.277,172.757 212.499 C 173.014 211.721,173.665 210.434,174.205 209.639 C 174.744 208.844,175.524 207.302,175.939 206.211 C 176.353 205.121,177.035 203.854,177.453 203.397 C 177.872 202.939,178.498 201.571,178.844 200.358 C 179.190 199.145,179.805 197.725,180.211 197.202 C 180.617 196.680,181.263 195.276,181.647 194.083 C 182.031 192.890,182.738 191.469,183.217 190.927 C 183.696 190.385,184.304 189.185,184.566 188.261 C 184.829 187.336,185.552 186.061,186.172 185.426 C 186.891 184.691,187.459 183.530,187.739 182.228 C 187.980 181.104,188.537 179.680,188.976 179.062 C 189.416 178.445,190.126 176.912,190.555 175.656 C 190.984 174.400,191.657 172.929,192.051 172.387 C 192.445 171.844,193.094 170.539,193.493 169.487 C 193.893 168.435,194.551 167.370,194.956 167.120 C 195.370 166.865,196.047 165.504,196.502 164.011 C 196.947 162.550,197.631 160.949,198.022 160.452 C 198.413 159.955,199.010 158.614,199.349 157.473 C 199.688 156.331,200.332 154.882,200.780 154.253 C 201.228 153.624,201.855 152.371,202.173 151.469 C 202.491 150.567,203.193 149.305,203.733 148.663 C 204.273 148.022,204.977 146.612,205.298 145.530 C 205.620 144.448,206.220 143.081,206.633 142.491 C 207.046 141.902,207.774 140.235,208.250 138.787 C 208.727 137.339,209.364 135.950,209.665 135.700 C 209.967 135.450,210.512 134.346,210.877 133.247 C 211.242 132.148,212.040 130.726,212.650 130.088 C 213.260 129.450,213.882 128.365,214.033 127.679 C 214.183 126.992,214.801 125.542,215.406 124.458 C 216.011 123.373,216.698 121.755,216.932 120.863 C 217.166 119.970,217.779 118.620,218.293 117.863 C 218.807 117.105,219.538 115.551,219.918 114.408 C 220.297 113.266,220.956 111.983,221.382 111.557 C 221.807 111.132,222.499 109.777,222.919 108.547 C 223.339 107.318,224.019 105.851,224.431 105.288 C 224.843 104.725,225.462 103.313,225.808 102.149 C 226.153 100.986,226.865 99.405,227.389 98.636 C 227.913 97.868,228.537 96.492,228.777 95.580 C 229.016 94.668,229.635 93.419,230.152 92.804 C 230.670 92.189,231.391 90.774,231.756 89.659 C 232.121 88.543,232.751 87.331,233.156 86.964 C 233.561 86.598,234.173 85.452,234.517 84.418 C 236.036 79.844,240.239 80.210,241.643 85.039 C 241.972 86.173,242.659 87.550,243.169 88.100 C 243.679 88.651,244.421 89.956,244.817 91.000 C 245.213 92.045,245.942 93.502,246.439 94.239 C 246.935 94.976,247.585 96.396,247.883 97.395 C 248.181 98.394,248.800 99.845,249.260 100.621 C 249.719 101.396,250.339 102.843,250.638 103.835 C 250.936 104.828,251.630 106.235,252.179 106.962 C 252.728 107.689,253.355 108.939,253.572 109.739 C 253.789 110.540,254.406 111.782,254.942 112.501 C 255.479 113.219,256.142 114.517,256.415 115.385 C 256.688 116.252,257.322 117.673,257.825 118.542 C 258.328 119.411,259.075 121.204,259.487 122.526 C 259.898 123.848,260.596 125.290,261.036 125.731 C 261.477 126.172,262.152 127.486,262.535 128.651 C 262.919 129.816,263.635 131.253,264.127 131.844 C 264.618 132.435,265.235 133.569,265.498 134.363 C 265.760 135.158,266.378 136.403,266.872 137.130 C 267.365 137.857,267.987 139.386,268.252 140.528 C 268.518 141.670,269.156 143.055,269.670 143.608 C 270.184 144.160,270.896 145.491,271.252 146.566 C 271.608 147.641,272.298 148.964,272.785 149.507 C 273.272 150.049,273.968 151.411,274.332 152.534 C 274.696 153.656,275.252 154.789,275.568 155.051 C 275.884 155.313,276.519 156.792,276.980 158.336 C 277.440 159.880,278.130 161.499,278.513 161.933 C 278.897 162.367,279.507 163.609,279.870 164.694 C 280.233 165.779,281.043 167.440,281.669 168.386 C 282.295 169.332,283.018 170.752,283.275 171.542 C 283.533 172.332,283.871 173.067,284.028 173.176 C 284.473 173.484,285.996 176.632,285.996 177.242 C 285.996 177.544,286.592 178.927,287.321 180.315 C 288.050 181.704,288.771 183.357,288.923 183.988 C 289.074 184.619,289.791 185.728,290.516 186.453 L 291.834 187.771 343.748 187.771 L 395.661 187.771 395.661 175.979 C 395.661 165.590,395.587 164.158,395.037 163.948 C 394.694 163.816,375.353 163.708,352.058 163.708 C 323.043 163.708,309.074 163.573,307.703 163.279 C 305.271 162.757,303.354 160.549,302.297 157.049 C 301.929 155.830,301.285 154.444,300.866 153.969 C 300.447 153.494,299.786 151.956,299.396 150.552 C 299.007 149.147,298.342 147.651,297.918 147.227 C 297.494 146.803,296.824 145.590,296.429 144.530 C 296.034 143.470,295.307 142.110,294.813 141.506 C 294.023 140.541,293.119 138.215,293.092 137.081 C 293.087 136.864,292.571 135.931,291.945 135.009 C 291.320 134.086,290.591 132.400,290.326 131.261 C 290.062 130.123,289.427 128.742,288.917 128.194 C 288.406 127.645,287.778 126.580,287.521 125.827 C 287.264 125.074,286.642 123.961,286.140 123.354 C 285.638 122.747,284.971 121.391,284.659 120.340 C 284.347 119.289,283.651 117.744,283.113 116.907 C 282.575 116.070,281.828 114.408,281.452 113.215 C 281.076 112.022,280.429 110.671,280.013 110.214 C 279.597 109.756,279.080 108.741,278.864 107.958 C 278.648 107.174,278.015 105.992,277.459 105.331 C 276.903 104.670,276.195 103.291,275.887 102.267 C 275.579 101.243,274.878 99.727,274.328 98.897 C 273.779 98.067,273.045 96.236,272.698 94.829 C 272.312 93.266,271.795 92.124,271.368 91.896 C 270.984 91.690,270.288 90.501,269.823 89.252 C 269.357 88.004,268.656 86.627,268.265 86.193 C 267.874 85.759,267.240 84.428,266.855 83.235 C 266.471 82.041,265.764 80.593,265.284 80.017 C 264.804 79.440,264.201 78.130,263.943 77.106 C 263.685 76.082,263.056 74.690,262.545 74.013 C 262.034 73.335,261.391 71.982,261.116 71.006 C 260.842 70.030,260.205 68.779,259.701 68.227 C 259.197 67.674,258.489 66.343,258.127 65.268 C 257.766 64.193,257.154 62.905,256.768 62.405 C 256.382 61.905,255.690 60.365,255.230 58.983 C 254.770 57.601,254.135 56.256,253.819 55.994 C 253.504 55.732,252.875 54.298,252.423 52.808 C 251.970 51.318,251.457 50.099,251.283 50.099 C 250.879 50.099,249.588 47.918,249.011 46.261 C 248.767 45.561,248.222 44.617,247.799 44.163 C 247.376 43.709,246.810 42.506,246.541 41.491 C 246.273 40.476,245.637 38.992,245.130 38.193 C 244.622 37.395,244.002 35.928,243.751 34.933 C 243.501 33.939,242.698 32.373,241.967 31.454 C 241.236 30.535,240.526 29.193,240.388 28.472 C 240.217 27.576,239.834 27.046,239.176 26.796 C 237.297 26.082,236.796 26.327,236.128 28.286 " stroke="none" fill="#f6f7f8" fill-rule="evenodd"></path><path id="path1" d="M4.339 80.674 L 4.339 161.348 56.312 161.325 L 108.284 161.301 109.192 162.406 C 109.691 163.014,110.502 163.968,110.995 164.527 C 111.487 165.085,112.130 166.417,112.422 167.485 C 112.715 168.554,113.352 169.911,113.838 170.501 C 114.324 171.090,115.021 172.476,115.387 173.578 C 115.754 174.681,116.468 175.998,116.974 176.504 C 117.480 177.010,118.092 178.199,118.334 179.146 C 118.576 180.093,119.387 182.084,120.136 183.571 C 120.886 185.058,121.500 186.478,121.501 186.727 C 121.502 186.976,122.036 187.978,122.689 188.955 C 123.341 189.931,124.068 191.435,124.304 192.297 C 124.540 193.159,125.146 194.355,125.651 194.955 C 126.384 195.826,127.811 199.514,127.811 200.536 C 127.811 200.656,128.236 201.381,128.756 202.148 C 129.277 202.914,129.925 204.471,130.198 205.608 C 130.497 206.856,131.048 207.953,131.589 208.379 C 132.081 208.766,132.782 209.978,133.145 211.072 C 133.508 212.166,134.209 213.496,134.702 214.028 C 135.194 214.559,135.895 216.054,136.258 217.349 C 136.622 218.645,137.149 219.842,137.431 220.010 C 137.712 220.178,138.258 220.804,138.642 221.400 C 139.623 222.922,139.847 222.782,140.400 220.311 C 140.668 219.115,141.295 217.651,141.794 217.057 C 142.293 216.462,142.825 215.236,142.977 214.331 C 143.130 213.425,143.817 211.828,144.504 210.780 C 145.191 209.733,146.021 208.077,146.348 207.101 C 146.695 206.066,147.286 205.175,147.765 204.964 C 148.348 204.708,148.788 203.851,149.274 202.027 C 149.652 200.611,150.374 198.960,150.880 198.359 C 151.386 197.758,151.914 196.591,152.053 195.765 C 152.193 194.940,152.736 193.558,153.260 192.695 C 154.365 190.876,154.767 190.055,155.458 188.212 C 155.733 187.478,156.353 186.408,156.835 185.834 C 157.318 185.261,157.908 184.069,158.145 183.187 C 158.383 182.304,159.107 180.800,159.755 179.844 C 160.402 178.889,160.936 177.873,160.940 177.588 C 160.951 176.779,162.584 173.176,162.940 173.176 C 163.115 173.176,163.547 172.181,163.900 170.965 C 164.254 169.749,164.976 168.322,165.505 167.793 C 166.034 167.264,166.666 166.037,166.911 165.066 C 167.155 164.094,167.846 162.683,168.445 161.929 C 169.081 161.129,169.647 159.810,169.804 158.763 C 169.976 157.615,170.489 156.494,171.230 155.651 C 171.866 154.927,172.387 154.061,172.387 153.728 C 172.387 152.699,173.912 149.502,174.514 149.271 C 174.827 149.151,175.298 148.159,175.560 147.067 C 175.822 145.975,176.522 144.524,177.115 143.843 C 177.803 143.053,178.296 141.918,178.473 140.713 C 178.651 139.509,179.147 138.364,179.842 137.557 C 180.442 136.861,181.169 135.428,181.457 134.372 C 181.746 133.316,182.407 131.948,182.926 131.331 C 183.446 130.714,184.171 129.270,184.539 128.122 C 184.974 126.763,185.506 125.904,186.065 125.659 C 186.726 125.369,187.031 124.711,187.392 122.796 C 187.696 121.187,188.249 119.822,188.962 118.926 C 189.567 118.164,190.273 116.665,190.530 115.594 C 190.786 114.523,191.406 113.238,191.907 112.737 C 192.408 112.236,193.017 111.086,193.261 110.181 C 193.505 109.276,194.119 108.213,194.626 107.818 C 195.222 107.355,195.792 106.192,196.236 104.536 C 196.615 103.126,197.325 101.440,197.814 100.789 C 198.304 100.138,198.999 98.590,199.360 97.350 C 199.720 96.109,200.455 94.618,200.994 94.038 C 201.532 93.457,201.972 92.732,201.972 92.428 C 201.972 91.691,203.074 89.544,203.956 88.560 C 204.345 88.126,204.857 87.041,205.094 86.149 C 205.330 85.256,205.987 83.845,206.552 83.012 C 207.117 82.178,207.836 80.512,208.150 79.309 C 208.463 78.105,209.154 76.667,209.685 76.113 C 210.216 75.558,210.651 74.883,210.651 74.612 C 210.651 73.822,212.134 70.787,212.783 70.248 C 213.109 69.978,213.657 68.788,214.001 67.604 C 214.345 66.421,214.990 65.089,215.435 64.644 C 215.879 64.200,216.561 62.687,216.951 61.283 C 217.340 59.878,218.008 58.341,218.435 57.866 C 218.862 57.391,219.440 56.154,219.719 55.117 C 219.999 54.081,220.643 52.838,221.152 52.356 C 221.661 51.874,222.369 50.592,222.724 49.507 C 223.080 48.422,223.775 47.091,224.269 46.548 C 224.763 46.005,225.396 44.516,225.677 43.233 C 225.958 41.953,226.571 40.444,227.040 39.880 C 227.509 39.317,228.190 37.950,228.555 36.842 C 228.919 35.734,229.636 34.434,230.147 33.954 C 230.658 33.473,231.300 32.250,231.573 31.234 C 231.845 30.219,232.470 28.945,232.961 28.402 C 233.452 27.860,234.136 26.451,234.482 25.271 C 236.054 19.904,241.070 20.404,242.178 26.039 C 242.506 27.705,242.842 28.425,243.371 28.593 C 244.064 28.813,245.365 31.352,245.365 32.484 C 245.365 32.767,245.782 33.391,246.293 33.870 C 246.803 34.350,247.439 35.490,247.705 36.405 C 247.971 37.319,248.609 38.714,249.122 39.506 C 249.636 40.297,250.344 42.056,250.696 43.415 C 251.102 44.982,251.667 46.146,252.240 46.597 C 252.737 46.987,253.375 48.135,253.659 49.148 C 253.942 50.160,254.580 51.425,255.075 51.960 C 255.571 52.495,256.279 53.848,256.649 54.967 C 257.018 56.086,257.745 57.562,258.264 58.246 C 258.783 58.930,259.351 60.403,259.528 61.519 C 259.744 62.886,260.196 63.911,260.913 64.659 C 261.499 65.271,262.234 66.621,262.547 67.660 C 262.859 68.700,263.463 69.794,263.888 70.091 C 264.313 70.389,264.968 71.649,265.343 72.890 C 265.718 74.132,266.368 75.537,266.787 76.012 C 267.206 76.487,267.880 78.072,268.286 79.536 C 268.692 80.999,269.181 82.296,269.374 82.419 C 269.927 82.773,271.400 85.717,271.400 86.470 C 271.400 86.845,271.950 87.778,272.621 88.543 C 273.293 89.307,274.086 90.743,274.384 91.732 C 274.681 92.722,275.289 93.994,275.734 94.560 C 276.179 95.125,276.830 96.577,277.182 97.786 C 277.533 98.995,278.233 100.609,278.737 101.373 C 279.241 102.136,279.930 103.548,280.269 104.509 C 280.607 105.471,281.289 106.802,281.785 107.468 C 282.281 108.134,282.897 109.404,283.154 110.291 C 283.412 111.178,283.980 112.227,284.417 112.622 C 284.854 113.017,285.567 114.535,286.001 115.994 C 286.436 117.453,287.059 118.868,287.385 119.139 C 287.712 119.410,288.358 120.936,288.821 122.530 C 289.379 124.450,289.897 125.502,290.357 125.648 C 291.019 125.858,292.308 128.427,292.308 129.536 C 292.308 129.826,292.742 130.531,293.273 131.104 C 293.804 131.677,294.551 133.167,294.932 134.416 C 295.314 135.665,296.013 137.164,296.486 137.748 C 296.959 138.332,297.558 139.693,297.817 140.773 C 298.076 141.852,298.625 143.041,299.037 143.414 C 299.449 143.786,300.153 145.072,300.602 146.271 C 301.050 147.469,301.832 148.944,302.340 149.547 C 302.848 150.150,303.489 151.587,303.765 152.738 C 304.041 153.890,304.596 155.279,304.999 155.824 C 305.401 156.370,306.047 157.701,306.434 158.783 L 307.137 160.750 320.334 160.997 C 327.592 161.133,347.510 161.262,364.596 161.284 L 395.661 161.323 395.661 80.662 L 395.661 0.000 200.000 0.000 L 4.339 0.000 4.339 80.674 M236.242 87.189 C 235.989 88.036,235.361 89.124,234.848 89.606 C 234.328 90.094,233.567 91.651,233.129 93.119 C 232.698 94.569,231.982 96.216,231.539 96.779 C 231.096 97.343,230.466 98.830,230.139 100.085 C 229.812 101.340,229.140 102.811,228.645 103.353 C 228.150 103.895,227.527 105.107,227.260 106.045 C 226.994 106.983,226.276 108.273,225.666 108.911 C 224.879 109.735,224.480 110.654,224.292 112.077 C 224.094 113.566,223.736 114.352,222.901 115.128 C 222.114 115.861,221.624 116.870,221.266 118.502 C 220.985 119.783,220.368 121.292,219.894 121.855 C 219.421 122.419,218.785 123.765,218.480 124.846 C 218.098 126.202,217.629 126.960,216.970 127.289 C 216.216 127.665,215.909 128.290,215.512 130.254 C 215.161 131.992,214.724 132.979,214.063 133.531 C 213.483 134.014,212.906 135.157,212.575 136.479 C 212.278 137.666,211.643 139.215,211.164 139.920 C 210.686 140.625,210.083 141.908,209.824 142.771 C 209.566 143.634,208.847 144.825,208.227 145.419 C 207.608 146.013,207.100 146.776,207.098 147.115 C 207.093 148.504,206.232 150.682,205.150 152.044 C 204.516 152.841,203.876 154.060,203.727 154.754 C 203.578 155.448,202.871 157.170,202.157 158.580 C 201.443 159.990,200.742 161.712,200.600 162.406 C 200.457 163.099,199.820 164.322,199.184 165.123 C 198.548 165.923,198.028 166.827,198.028 167.131 C 198.028 167.915,196.503 170.809,196.089 170.809 C 195.669 170.809,195.364 171.543,194.618 174.354 C 194.302 175.545,193.714 176.876,193.311 177.313 C 192.909 177.749,192.295 179.074,191.948 180.257 C 191.601 181.440,190.905 182.860,190.401 183.413 C 189.898 183.966,189.251 185.167,188.964 186.082 C 188.677 186.997,187.936 188.197,187.318 188.748 C 186.699 189.299,186.192 190.059,186.191 190.437 C 186.186 191.879,185.329 194.123,184.400 195.126 C 183.867 195.701,183.431 196.455,183.430 196.803 C 183.425 198.129,182.577 200.413,181.698 201.467 C 181.194 202.070,180.544 203.274,180.252 204.142 C 179.960 205.010,179.304 206.184,178.793 206.751 C 178.283 207.318,177.517 208.940,177.093 210.356 C 176.668 211.772,176.046 213.158,175.711 213.436 C 175.004 214.023,173.964 216.352,173.964 217.350 C 173.964 217.727,173.492 218.726,172.915 219.570 C 172.337 220.414,171.544 221.975,171.152 223.039 C 170.759 224.103,170.105 225.345,169.697 225.800 C 169.290 226.255,168.651 227.426,168.278 228.402 C 167.905 229.379,167.177 230.799,166.660 231.558 C 166.144 232.318,165.554 233.688,165.351 234.605 C 165.147 235.521,164.428 237.104,163.752 238.124 C 163.077 239.143,162.525 240.314,162.525 240.725 C 162.525 241.624,161.893 242.911,160.926 243.984 C 160.535 244.418,159.843 245.770,159.389 246.988 C 158.935 248.206,158.221 249.513,157.801 249.892 C 157.382 250.271,156.843 251.529,156.602 252.687 C 156.362 253.845,155.740 255.419,155.220 256.185 C 154.701 256.951,154.083 258.294,153.847 259.169 C 153.611 260.044,152.927 261.334,152.326 262.037 C 151.725 262.739,151.009 264.089,150.735 265.037 C 150.461 265.984,149.793 267.170,149.251 267.673 C 148.608 268.269,148.065 269.447,147.686 271.070 C 147.368 272.437,146.781 273.913,146.384 274.351 C 145.986 274.789,145.348 276.111,144.965 277.289 C 144.582 278.466,143.885 279.797,143.415 280.247 C 142.946 280.697,142.331 281.864,142.050 282.840 C 140.731 287.423,135.733 287.373,134.503 282.764 C 134.017 280.947,133.920 280.740,132.811 279.173 C 132.415 278.613,131.858 277.271,131.573 276.190 C 131.288 275.109,130.608 273.633,130.063 272.911 C 129.518 272.189,128.890 270.929,128.669 270.113 C 128.447 269.296,127.813 268.089,127.259 267.431 C 126.705 266.773,125.995 265.369,125.681 264.311 C 125.367 263.253,124.748 262.026,124.306 261.584 C 123.864 261.142,123.205 259.753,122.842 258.497 C 122.479 257.241,121.673 255.256,121.052 254.086 C 120.430 252.917,119.921 251.735,119.921 251.461 C 119.921 251.187,119.314 250.235,118.572 249.347 C 117.830 248.459,117.103 247.155,116.957 246.450 C 116.811 245.745,116.261 244.533,115.736 243.757 C 115.211 242.982,114.445 241.134,114.034 239.651 C 113.622 238.168,113.009 236.800,112.671 236.610 C 112.332 236.421,111.688 235.076,111.238 233.621 C 110.789 232.166,110.006 230.530,109.499 229.985 C 108.992 229.440,108.351 228.284,108.075 227.416 C 107.798 226.548,107.178 225.306,106.696 224.655 C 106.214 224.004,105.508 222.495,105.127 221.302 C 104.747 220.108,104.187 218.847,103.884 218.498 C 103.581 218.150,102.972 216.837,102.531 215.581 C 102.089 214.325,101.313 212.747,100.806 212.073 C 100.299 211.399,99.609 210.027,99.273 209.023 C 98.937 208.020,98.218 206.544,97.675 205.745 C 97.133 204.945,96.415 203.349,96.080 202.197 C 95.745 201.045,95.221 199.896,94.915 199.642 C 94.610 199.388,94.046 198.022,93.663 196.606 C 93.097 194.517,92.668 193.777,91.382 192.677 L 89.799 191.321 47.068 191.321 L 4.337 191.321 4.437 274.458 L 4.536 357.594 200.000 357.594 L 395.464 357.594 395.563 274.458 L 395.663 191.321 343.832 191.321 L 292.002 191.321 290.092 190.039 C 288.730 189.126,288.009 188.298,287.582 187.159 C 287.252 186.280,286.594 185.072,286.119 184.474 C 285.644 183.876,284.956 182.484,284.589 181.380 C 284.222 180.276,283.519 178.779,283.027 178.054 C 282.535 177.328,281.921 175.854,281.663 174.778 C 281.405 173.702,280.783 172.379,280.281 171.837 C 279.779 171.295,279.058 169.910,278.680 168.759 C 278.301 167.608,277.597 166.266,277.114 165.777 C 276.632 165.287,275.945 163.848,275.589 162.579 C 275.233 161.310,274.610 159.972,274.204 159.604 C 273.798 159.237,273.161 157.836,272.788 156.490 C 272.416 155.144,271.803 153.688,271.426 153.254 C 270.614 152.318,269.428 149.814,269.428 149.033 C 269.428 148.730,269.267 148.313,269.070 148.107 C 268.516 147.527,266.804 144.296,266.466 143.195 C 266.300 142.653,265.752 141.716,265.248 141.113 C 264.744 140.510,264.214 139.356,264.070 138.549 C 263.927 137.741,263.296 136.293,262.669 135.329 C 262.042 134.366,261.338 132.857,261.106 131.976 C 260.874 131.095,260.087 129.487,259.356 128.402 C 258.625 127.318,257.910 125.940,257.767 125.340 C 257.623 124.741,257.283 124.119,257.011 123.959 C 256.341 123.565,255.383 121.601,255.041 119.921 C 254.887 119.162,254.336 117.883,253.817 117.080 C 253.298 116.277,252.575 114.502,252.210 113.135 C 251.797 111.589,251.208 110.385,250.651 109.947 C 250.159 109.559,249.539 108.583,249.274 107.777 C 249.009 106.971,248.382 105.690,247.880 104.930 C 247.378 104.171,246.626 102.573,246.209 101.380 C 245.791 100.187,245.008 98.412,244.468 97.436 C 243.927 96.460,243.370 94.883,243.229 93.932 C 243.058 92.782,242.654 91.954,242.023 91.457 C 241.501 91.046,240.731 89.793,240.313 88.673 C 239.673 86.956,239.329 86.558,238.129 86.142 L 236.704 85.649 236.242 87.189 " stroke="none" fill="#44545b" fill-rule="evenodd"></path><path id="path2" d="M235.648 26.708 C 235.100 27.946,234.320 29.425,233.915 29.995 C 233.509 30.565,232.799 31.993,232.336 33.168 C 231.874 34.344,231.248 35.581,230.946 35.917 C 230.643 36.253,230.139 37.255,229.826 38.143 C 228.837 40.944,226.778 45.312,222.887 52.860 C 221.825 54.921,220.137 58.471,219.138 60.750 C 217.432 64.636,217.071 65.390,215.591 68.146 C 215.271 68.743,214.644 70.030,214.198 71.006 C 213.751 71.982,213.048 73.402,212.635 74.162 C 212.222 74.921,211.273 76.874,210.527 78.501 C 208.950 81.941,205.055 89.908,203.970 91.913 C 202.485 94.656,196.844 106.970,196.844 107.468 C 196.844 107.643,196.312 108.392,195.661 109.133 C 195.010 109.875,194.477 110.686,194.477 110.935 C 194.477 111.444,191.480 118.162,189.764 121.499 C 189.150 122.692,188.520 124.112,188.363 124.655 C 188.207 125.197,187.595 126.174,187.004 126.824 C 186.413 127.475,185.706 128.807,185.432 129.783 C 185.159 130.759,184.439 132.446,183.833 133.531 C 183.227 134.615,182.606 135.947,182.454 136.489 C 182.301 137.032,180.133 141.647,177.635 146.746 C 175.137 151.844,172.510 157.258,171.798 158.777 C 170.521 161.500,167.065 168.513,165.675 171.203 C 165.283 171.963,164.345 173.915,163.592 175.542 C 160.475 182.279,157.652 188.005,157.176 188.560 C 156.896 188.886,156.272 190.217,155.788 191.519 C 155.304 192.821,154.671 194.250,154.382 194.696 C 154.093 195.141,153.507 196.524,153.079 197.768 C 152.651 199.012,151.969 200.512,151.564 201.100 C 151.159 201.688,150.591 202.791,150.302 203.550 C 150.012 204.310,149.335 205.529,148.797 206.260 C 148.258 206.990,147.476 208.489,147.057 209.590 C 146.639 210.691,145.966 212.057,145.561 212.625 C 145.157 213.193,144.706 214.179,144.560 214.817 C 144.270 216.080,140.106 224.852,139.796 224.852 C 138.235 224.852,136.391 222.817,135.326 219.921 C 134.848 218.619,134.137 217.022,133.746 216.371 C 133.356 215.720,132.737 214.267,132.372 213.141 C 132.007 212.016,131.186 210.438,130.548 209.635 C 129.911 208.832,129.389 208.018,129.389 207.825 C 129.389 207.633,128.612 205.837,127.662 203.836 C 125.500 199.278,123.633 194.975,123.260 193.688 C 123.102 193.146,122.668 192.258,122.295 191.716 C 121.707 190.862,119.445 186.258,116.188 179.290 C 115.681 178.205,114.361 175.429,113.255 173.122 C 112.148 170.814,111.243 168.796,111.243 168.638 C 111.243 167.820,107.581 162.981,106.805 162.773 C 104.249 162.088,4.339 162.519,4.339 163.215 C 4.339 163.941,0.863 163.925,102.072 163.683 C 105.322 163.676,107.255 164.348,108.020 165.754 C 108.382 166.419,109.083 167.461,109.578 168.069 C 110.072 168.678,110.830 170.200,111.261 171.452 C 111.691 172.705,112.370 174.093,112.768 174.537 C 113.166 174.982,113.719 176.233,113.996 177.318 C 114.273 178.402,114.891 179.911,115.369 180.671 C 115.848 181.430,116.533 182.919,116.891 183.979 C 117.250 185.040,117.963 186.460,118.475 187.135 C 118.988 187.810,119.627 189.033,119.895 189.852 C 120.164 190.671,120.796 191.832,121.300 192.431 C 121.805 193.031,122.517 194.579,122.884 195.873 C 123.251 197.166,123.911 198.846,124.351 199.606 C 124.791 200.365,125.485 201.954,125.895 203.137 C 126.305 204.320,126.970 205.651,127.374 206.096 C 127.778 206.540,128.317 207.557,128.573 208.356 C 128.828 209.155,129.564 210.471,130.208 211.281 C 130.852 212.091,131.479 213.213,131.603 213.774 C 132.079 215.945,132.666 217.580,133.183 218.173 C 133.479 218.514,134.062 219.784,134.479 220.995 C 135.599 224.251,135.933 224.724,137.936 225.898 L 139.762 226.968 140.688 225.812 C 141.197 225.175,141.723 224.077,141.857 223.371 C 141.991 222.666,142.612 221.444,143.239 220.656 C 143.865 219.868,144.569 218.509,144.804 217.635 C 145.040 216.762,145.733 215.144,146.346 214.040 C 146.958 212.935,147.576 211.471,147.718 210.786 C 147.859 210.101,148.586 208.682,149.333 207.632 C 150.080 206.582,150.690 205.443,150.690 205.101 C 150.690 204.759,151.218 203.782,151.863 202.930 C 152.508 202.078,153.332 200.493,153.696 199.408 C 154.060 198.323,154.669 197.033,155.051 196.541 C 155.433 196.049,156.115 194.431,156.567 192.944 C 157.018 191.458,157.654 190.021,157.979 189.752 C 158.304 189.482,158.947 188.225,159.409 186.958 C 159.871 185.691,160.576 184.359,160.975 183.998 C 161.375 183.636,162.075 182.220,162.530 180.852 C 162.985 179.483,163.614 178.151,163.926 177.892 C 164.239 177.632,164.857 176.248,165.299 174.815 C 165.742 173.382,166.429 171.850,166.826 171.410 C 167.223 170.971,167.871 169.724,168.266 168.639 C 168.661 167.554,169.378 166.184,169.861 165.594 C 170.343 165.004,171.046 163.593,171.422 162.458 C 171.799 161.324,172.404 160.078,172.765 159.689 C 173.127 159.301,173.735 157.995,174.116 156.786 C 174.496 155.578,175.240 153.953,175.768 153.175 C 176.296 152.397,176.939 151.031,177.196 150.140 C 177.454 149.250,178.058 148.038,178.540 147.448 C 179.022 146.858,179.719 145.461,180.091 144.343 C 180.462 143.226,181.092 141.985,181.491 141.585 C 181.891 141.186,182.515 139.832,182.878 138.576 C 183.242 137.320,183.863 135.878,184.258 135.372 C 185.088 134.311,186.588 130.487,186.588 129.435 C 186.588 129.043,186.966 128.384,187.428 127.970 C 187.890 127.557,188.598 126.453,189.002 125.518 C 189.406 124.582,189.989 123.564,190.297 123.257 C 190.604 122.949,191.169 121.850,191.552 120.816 C 191.934 119.781,192.653 118.220,193.150 117.347 C 193.647 116.474,194.416 114.587,194.858 113.154 C 195.301 111.721,195.953 110.308,196.308 110.013 C 196.662 109.719,197.284 108.703,197.691 107.756 C 198.097 106.808,198.783 105.583,199.215 105.033 C 199.648 104.483,200.269 103.132,200.597 102.030 C 200.924 100.928,201.623 99.375,202.150 98.579 C 202.677 97.782,203.410 96.090,203.779 94.818 C 204.149 93.546,204.763 92.285,205.145 92.017 C 205.527 91.748,206.111 90.731,206.443 89.757 C 206.775 88.784,207.480 87.406,208.011 86.696 C 208.541 85.985,209.194 84.694,209.461 83.826 C 209.728 82.959,210.377 81.609,210.903 80.828 C 211.429 80.047,212.154 78.361,212.514 77.081 C 212.874 75.801,213.482 74.527,213.865 74.250 C 214.248 73.973,214.869 72.730,215.244 71.488 C 215.619 70.247,216.321 68.787,216.805 68.245 C 217.289 67.702,217.997 66.296,218.378 65.120 C 218.758 63.944,219.388 62.664,219.776 62.275 C 220.164 61.887,220.775 60.542,221.134 59.286 C 221.492 58.030,222.084 56.647,222.448 56.213 C 223.182 55.338,224.458 52.675,224.458 52.016 C 224.458 51.783,224.888 51.082,225.413 50.458 C 225.939 49.833,226.725 48.369,227.161 47.203 C 227.597 46.038,228.389 44.444,228.921 43.660 C 229.452 42.877,230.010 41.583,230.160 40.785 C 230.309 39.988,230.932 38.428,231.544 37.320 C 232.156 36.212,232.875 34.596,233.141 33.728 C 233.408 32.860,234.047 31.698,234.561 31.146 C 235.075 30.594,235.780 29.307,236.128 28.286 C 236.796 26.327,237.297 26.082,239.176 26.796 C 239.834 27.046,240.217 27.576,240.388 28.472 C 240.526 29.193,241.236 30.535,241.967 31.454 C 242.698 32.373,243.501 33.939,243.751 34.933 C 244.002 35.928,244.622 37.395,245.130 38.193 C 245.637 38.992,246.273 40.476,246.541 41.491 C 246.810 42.506,247.376 43.709,247.799 44.163 C 248.222 44.617,248.767 45.561,249.011 46.261 C 249.588 47.918,250.879 50.099,251.283 50.099 C 251.457 50.099,251.970 51.318,252.423 52.808 C 252.875 54.298,253.504 55.732,253.819 55.994 C 254.135 56.256,254.770 57.601,255.230 58.983 C 255.690 60.365,256.382 61.905,256.768 62.405 C 257.154 62.905,257.766 64.193,258.127 65.268 C 258.489 66.343,259.197 67.674,259.701 68.227 C 260.205 68.779,260.842 70.030,261.116 71.006 C 261.391 71.982,262.034 73.335,262.545 74.013 C 263.056 74.690,263.685 76.082,263.943 77.106 C 264.201 78.130,264.804 79.440,265.284 80.017 C 265.764 80.593,266.471 82.041,266.855 83.235 C 267.240 84.428,267.874 85.759,268.265 86.193 C 268.656 86.627,269.357 88.004,269.823 89.252 C 270.288 90.501,270.984 91.690,271.368 91.896 C 271.795 92.124,272.312 93.266,272.698 94.829 C 273.045 96.236,273.779 98.067,274.328 98.897 C 274.878 99.727,275.579 101.243,275.887 102.267 C 276.195 103.291,276.903 104.670,277.459 105.331 C 278.015 105.992,278.648 107.174,278.864 107.958 C 279.080 108.741,279.597 109.756,280.013 110.214 C 280.429 110.671,281.076 112.022,281.452 113.215 C 281.828 114.408,282.575 116.070,283.113 116.907 C 283.651 117.744,284.347 119.289,284.659 120.340 C 284.971 121.391,285.638 122.747,286.140 123.354 C 286.642 123.961,287.264 125.074,287.521 125.827 C 287.778 126.580,288.406 127.645,288.917 128.194 C 289.427 128.742,290.062 130.123,290.326 131.261 C 290.591 132.400,291.320 134.086,291.945 135.009 C 292.571 135.931,293.087 136.864,293.092 137.081 C 293.119 138.215,294.023 140.541,294.813 141.506 C 295.307 142.110,296.034 143.470,296.429 144.530 C 296.824 145.590,297.494 146.803,297.918 147.227 C 298.342 147.651,299.007 149.147,299.396 150.552 C 299.786 151.956,300.447 153.494,300.866 153.969 C 301.285 154.444,301.929 155.830,302.297 157.049 C 303.373 160.612,305.275 162.772,307.787 163.286 C 311.842 164.115,395.661 164.047,395.661 163.215 C 395.661 162.562,393.298 162.525,351.567 162.525 C 313.233 162.525,307.364 162.448,306.638 161.940 C 305.653 161.250,303.681 157.859,302.963 155.621 C 302.685 154.753,301.972 153.067,301.379 151.874 C 300.786 150.680,300.069 149.083,299.785 148.323 C 299.502 147.564,298.977 146.499,298.618 145.957 C 297.355 144.049,294.775 138.975,294.291 137.445 C 294.021 136.594,293.299 134.989,292.686 133.879 C 292.073 132.769,291.277 130.849,290.918 129.612 C 290.558 128.376,290.014 127.268,289.708 127.151 C 289.199 126.955,285.207 119.268,285.207 118.483 C 285.207 118.124,282.501 112.364,281.250 110.059 C 280.837 109.300,280.036 107.710,279.470 106.526 C 278.903 105.343,278.123 103.923,277.736 103.371 C 277.349 102.819,276.802 101.657,276.520 100.789 C 276.239 99.921,275.415 97.973,274.691 96.461 C 273.966 94.948,273.373 93.456,273.373 93.145 C 273.373 92.834,272.924 91.991,272.375 91.272 C 271.827 90.552,270.867 88.825,270.243 87.434 C 269.619 86.043,268.927 84.793,268.705 84.656 C 268.483 84.519,268.093 83.744,267.838 82.933 C 267.205 80.921,264.363 74.935,259.365 65.089 C 258.205 62.803,256.321 58.675,255.403 56.410 C 255.008 55.434,254.484 54.369,254.239 54.043 C 253.994 53.718,253.296 52.251,252.688 50.783 C 252.080 49.316,251.427 48.019,251.237 47.901 C 250.804 47.633,247.536 40.900,246.727 38.608 C 246.395 37.666,245.864 36.500,245.546 36.015 C 245.229 35.531,244.601 34.196,244.151 33.050 C 243.701 31.904,243.000 30.609,242.593 30.172 C 242.185 29.735,241.570 28.670,241.224 27.805 C 239.940 24.590,239.819 24.458,238.176 24.458 C 236.690 24.458,236.612 24.527,235.648 26.708 M235.807 81.933 C 235.434 82.345,234.852 83.467,234.514 84.426 C 234.175 85.386,233.561 86.531,233.150 86.971 C 232.738 87.411,232.101 88.659,231.734 89.744 C 231.367 90.828,230.649 92.212,230.139 92.819 C 229.629 93.425,229.016 94.668,228.777 95.580 C 228.537 96.492,227.913 97.868,227.389 98.636 C 226.865 99.405,226.153 100.986,225.808 102.149 C 225.462 103.313,224.843 104.725,224.431 105.288 C 224.019 105.851,223.339 107.318,222.919 108.547 C 222.499 109.777,221.807 111.132,221.382 111.557 C 220.956 111.983,220.297 113.266,219.918 114.408 C 219.538 115.551,218.807 117.105,218.293 117.863 C 217.779 118.620,217.166 119.970,216.932 120.863 C 216.698 121.755,216.011 123.373,215.406 124.458 C 214.801 125.542,214.183 126.992,214.033 127.679 C 213.882 128.365,213.260 129.450,212.650 130.088 C 212.040 130.726,211.242 132.148,210.877 133.247 C 210.512 134.346,209.967 135.450,209.665 135.700 C 209.364 135.950,208.727 137.339,208.250 138.787 C 207.774 140.235,207.046 141.902,206.633 142.491 C 206.220 143.081,205.620 144.448,205.298 145.530 C 204.977 146.612,204.273 148.022,203.733 148.663 C 203.193 149.305,202.491 150.567,202.173 151.469 C 201.855 152.371,201.228 153.624,200.780 154.253 C 200.332 154.882,199.688 156.331,199.349 157.473 C 199.010 158.614,198.413 159.955,198.022 160.452 C 197.631 160.949,196.947 162.550,196.502 164.011 C 196.047 165.504,195.370 166.865,194.956 167.120 C 194.551 167.370,193.893 168.435,193.493 169.487 C 193.094 170.539,192.445 171.844,192.051 172.387 C 191.657 172.929,190.984 174.400,190.555 175.656 C 190.126 176.912,189.416 178.445,188.976 179.062 C 188.537 179.680,187.980 181.104,187.739 182.228 C 187.459 183.530,186.891 184.691,186.172 185.426 C 185.552 186.061,184.829 187.336,184.566 188.261 C 184.304 189.185,183.696 190.385,183.217 190.927 C 182.738 191.469,182.031 192.890,181.647 194.083 C 181.263 195.276,180.617 196.680,180.211 197.202 C 179.805 197.725,179.190 199.145,178.844 200.358 C 178.498 201.571,177.872 202.939,177.453 203.397 C 177.035 203.854,176.353 205.121,175.939 206.211 C 175.524 207.302,174.744 208.844,174.205 209.639 C 173.665 210.434,173.014 211.721,172.757 212.499 C 172.500 213.277,171.868 214.536,171.353 215.295 C 170.837 216.055,170.222 217.406,169.985 218.299 C 169.748 219.191,169.054 220.897,168.443 222.091 C 167.832 223.284,167.024 225.010,166.649 225.925 C 166.273 226.841,165.643 227.882,165.248 228.240 C 164.853 228.597,164.246 229.743,163.900 230.785 C 163.554 231.828,163.015 232.893,162.703 233.152 C 162.391 233.411,161.691 235.029,161.148 236.747 C 160.606 238.465,159.825 240.232,159.414 240.673 C 159.003 241.115,158.441 242.283,158.165 243.269 C 157.889 244.255,157.259 245.542,156.766 246.128 C 156.273 246.713,155.560 247.980,155.180 248.942 C 154.801 249.903,154.098 251.312,153.619 252.071 C 153.139 252.830,152.436 254.428,152.056 255.621 C 151.676 256.815,151.130 257.930,150.843 258.100 C 150.555 258.270,149.952 259.599,149.503 261.054 C 149.053 262.508,148.271 264.145,147.764 264.690 C 147.257 265.235,146.547 266.592,146.186 267.705 C 145.825 268.819,145.178 270.048,144.748 270.437 C 144.318 270.826,143.686 272.109,143.343 273.286 C 143.001 274.464,142.300 276.049,141.785 276.807 C 141.270 277.565,140.732 278.834,140.590 279.625 C 139.906 283.414,137.258 282.851,135.930 278.634 C 135.531 277.367,134.884 275.922,134.491 275.421 C 134.098 274.921,133.483 273.627,133.124 272.547 C 132.765 271.466,132.072 270.320,131.585 270.001 C 131.006 269.622,130.463 268.569,130.017 266.959 C 129.641 265.605,129.007 264.142,128.606 263.708 C 128.206 263.274,127.577 261.854,127.208 260.552 C 126.840 259.250,126.026 257.401,125.399 256.441 C 124.773 255.482,124.260 254.417,124.259 254.074 C 124.258 253.732,123.726 252.653,123.076 251.677 C 122.426 250.700,121.693 249.292,121.445 248.547 C 121.198 247.803,120.492 246.399,119.877 245.429 C 119.262 244.459,118.490 242.744,118.163 241.618 C 117.836 240.493,117.227 239.138,116.810 238.608 C 116.393 238.078,115.853 236.905,115.610 236.000 C 115.366 235.096,114.736 233.843,114.209 233.217 C 113.682 232.591,112.866 231.030,112.394 229.748 C 111.923 228.465,111.204 227.048,110.795 226.598 C 110.386 226.148,109.784 224.751,109.456 223.492 C 109.129 222.234,108.521 220.728,108.106 220.146 C 107.692 219.564,106.993 218.140,106.553 216.983 C 106.113 215.826,105.413 214.505,104.997 214.047 C 104.581 213.590,103.945 212.304,103.583 211.190 C 103.222 210.077,102.585 208.857,102.167 208.479 C 101.750 208.101,101.119 206.796,100.765 205.578 C 100.410 204.360,99.714 202.651,99.217 201.780 C 98.719 200.910,98.087 199.487,97.812 198.619 C 97.536 197.751,96.718 196.178,95.993 195.123 C 95.268 194.068,94.674 192.915,94.673 192.559 C 94.670 191.271,93.066 189.297,91.412 188.546 C 89.144 187.516,4.339 187.322,4.339 188.346 C 4.339 188.846,9.943 188.937,47.041 189.037 L 89.744 189.152 91.240 190.083 C 92.505 190.868,93.106 191.789,95.105 196.000 C 96.407 198.742,97.910 201.874,98.445 202.959 C 98.981 204.043,99.679 205.697,99.997 206.634 C 100.315 207.570,100.903 208.813,101.303 209.395 C 102.337 210.899,107.380 221.451,108.863 225.214 C 109.327 226.390,110.055 227.843,110.482 228.443 C 110.910 229.043,111.527 230.292,111.854 231.219 C 112.181 232.147,112.956 233.712,113.576 234.697 C 114.196 235.683,114.922 237.199,115.190 238.067 C 115.458 238.935,115.988 240.178,116.367 240.828 C 116.746 241.479,117.378 242.899,117.771 243.984 C 118.163 245.069,118.787 246.400,119.156 246.943 C 119.525 247.485,120.348 248.994,120.984 250.296 C 121.621 251.598,122.428 253.195,122.779 253.846 C 124.059 256.220,126.627 261.746,126.629 262.130 C 126.630 262.347,127.340 263.926,128.207 265.639 C 129.074 267.352,129.783 268.970,129.783 269.234 C 129.783 269.498,130.306 270.372,130.945 271.176 C 131.584 271.980,132.315 273.291,132.571 274.090 C 132.826 274.889,133.353 276.075,133.742 276.726 C 134.131 277.377,134.922 279.094,135.499 280.542 C 137.278 285.004,139.775 285.446,141.060 281.528 C 141.427 280.405,142.066 279.006,142.478 278.418 C 142.890 277.829,143.555 276.409,143.956 275.262 C 144.658 273.250,145.783 270.802,147.724 267.061 C 151.132 260.491,155.557 251.222,156.010 249.704 C 156.172 249.162,156.695 248.185,157.172 247.535 C 157.649 246.884,158.445 245.337,158.941 244.098 C 159.437 242.859,160.082 241.647,160.374 241.404 C 160.667 241.161,161.113 240.311,161.365 239.515 C 161.835 238.029,164.488 232.136,165.479 230.375 C 166.391 228.755,171.011 219.298,172.031 216.964 C 172.552 215.771,173.708 213.375,174.601 211.638 C 175.493 209.902,176.360 208.037,176.526 207.495 C 176.693 206.953,177.149 206.055,177.540 205.499 C 177.931 204.944,179.158 202.459,180.268 199.977 C 181.378 197.494,182.990 194.043,183.851 192.308 C 184.713 190.572,185.414 188.991,185.411 188.795 C 185.407 188.598,185.859 187.841,186.416 187.112 C 186.972 186.382,187.778 184.945,188.208 183.918 C 188.637 182.892,189.418 181.164,189.942 180.079 C 190.467 178.994,191.816 176.065,192.941 173.570 C 194.066 171.075,195.405 168.484,195.915 167.813 C 196.426 167.141,196.844 166.448,196.844 166.271 C 196.844 165.914,199.255 160.507,201.619 155.561 C 202.464 153.792,203.156 152.185,203.156 151.989 C 203.156 151.793,203.594 151.038,204.131 150.311 C 204.667 149.585,205.399 148.086,205.758 146.980 C 206.117 145.875,206.805 144.438,207.288 143.787 C 207.770 143.136,208.386 141.928,208.657 141.102 C 209.347 138.995,212.935 131.458,213.378 131.185 C 213.580 131.060,214.054 130.117,214.432 129.089 C 214.810 128.060,215.508 126.686,215.981 126.036 C 216.455 125.385,217.062 124.142,217.331 123.274 C 217.599 122.406,218.326 120.631,218.945 119.329 C 219.565 118.028,220.522 115.986,221.071 114.793 C 221.621 113.600,222.230 112.357,222.425 112.032 C 223.332 110.519,228.790 98.818,229.602 96.647 C 229.886 95.888,230.416 94.822,230.779 94.280 C 231.143 93.738,231.763 92.406,232.157 91.321 C 232.551 90.237,233.186 88.994,233.568 88.560 C 233.950 88.126,234.742 86.662,235.329 85.306 C 236.463 82.682,236.749 82.526,238.824 83.393 C 239.899 83.842,240.274 84.327,240.820 85.970 C 241.189 87.082,241.919 88.501,242.441 89.122 C 242.964 89.743,243.904 91.468,244.531 92.956 C 247.578 100.192,250.117 105.684,252.073 109.270 C 253.561 111.999,259.172 124.415,259.172 124.980 C 259.172 125.175,259.704 126.005,260.355 126.824 C 261.006 127.643,261.538 128.503,261.538 128.734 C 261.538 128.965,262.846 131.825,264.445 135.090 C 266.043 138.355,267.559 141.670,267.813 142.457 C 268.066 143.245,268.615 144.197,269.032 144.575 C 269.449 144.952,270.079 146.132,270.433 147.197 C 270.787 148.263,271.682 150.139,272.422 151.368 C 273.162 152.597,273.767 153.791,273.767 154.022 C 273.767 154.252,274.389 155.721,275.148 157.287 C 275.907 158.852,276.529 160.259,276.529 160.413 C 276.529 160.676,280.661 169.066,281.843 171.203 C 282.633 172.631,285.207 178.212,285.207 178.497 C 285.207 180.117,289.720 187.833,290.974 188.357 C 293.135 189.260,395.661 189.266,395.661 188.363 C 395.661 187.840,389.630 187.771,343.748 187.771 L 291.834 187.771 290.516 186.453 C 289.791 185.728,289.074 184.619,288.923 183.988 C 288.771 183.357,288.050 181.704,287.321 180.315 C 286.592 178.927,285.996 177.544,285.996 177.242 C 285.996 176.632,284.473 173.484,284.028 173.176 C 283.871 173.067,283.533 172.332,283.275 171.542 C 283.018 170.752,282.295 169.332,281.669 168.386 C 281.043 167.440,280.233 165.779,279.870 164.694 C 279.507 163.609,278.897 162.367,278.513 161.933 C 278.130 161.499,277.440 159.880,276.980 158.336 C 276.519 156.792,275.884 155.313,275.568 155.051 C 275.252 154.789,274.696 153.656,274.332 152.534 C 273.968 151.411,273.272 150.049,272.785 149.507 C 272.298 148.964,271.608 147.641,271.252 146.566 C 270.896 145.491,270.184 144.160,269.670 143.608 C 269.156 143.055,268.518 141.670,268.252 140.528 C 267.987 139.386,267.365 137.857,266.872 137.130 C 266.378 136.403,265.760 135.158,265.498 134.363 C 265.235 133.569,264.618 132.435,264.127 131.844 C 263.635 131.253,262.919 129.816,262.535 128.651 C 262.152 127.486,261.477 126.172,261.036 125.731 C 260.596 125.290,259.898 123.848,259.487 122.526 C 259.075 121.204,258.328 119.411,257.825 118.542 C 257.322 117.673,256.688 116.252,256.415 115.385 C 256.142 114.517,255.479 113.219,254.942 112.501 C 254.406 111.782,253.789 110.540,253.572 109.739 C 253.355 108.939,252.728 107.689,252.179 106.962 C 251.630 106.235,250.936 104.828,250.638 103.835 C 250.339 102.843,249.719 101.396,249.260 100.621 C 248.800 99.845,248.181 98.394,247.883 97.395 C 247.585 96.396,246.935 94.976,246.439 94.239 C 245.942 93.502,245.213 92.045,244.817 91.000 C 244.421 89.956,243.679 88.651,243.169 88.100 C 242.659 87.550,241.972 86.173,241.643 85.039 C 240.693 81.771,237.494 80.069,235.807 81.933 " stroke="none" fill="#b0b4b8" fill-rule="evenodd"></path><path id="path3" d="M235.922 22.261 C 235.475 22.737,234.827 24.092,234.482 25.271 C 234.136 26.451,233.452 27.860,232.961 28.402 C 232.470 28.945,231.845 30.219,231.573 31.234 C 231.300 32.250,230.658 33.473,230.147 33.954 C 229.636 34.434,228.919 35.734,228.555 36.842 C 228.190 37.950,227.509 39.317,227.040 39.880 C 226.571 40.444,225.958 41.953,225.677 43.233 C 225.396 44.516,224.763 46.005,224.269 46.548 C 223.775 47.091,223.080 48.422,222.724 49.507 C 222.369 50.592,221.661 51.874,221.152 52.356 C 220.643 52.838,219.999 54.081,219.719 55.117 C 219.440 56.154,218.862 57.391,218.435 57.866 C 218.008 58.341,217.340 59.878,216.951 61.283 C 216.561 62.687,215.879 64.200,215.435 64.644 C 214.990 65.089,214.345 66.421,214.001 67.604 C 213.657 68.788,213.109 69.978,212.783 70.248 C 212.134 70.787,210.651 73.822,210.651 74.612 C 210.651 74.883,210.216 75.558,209.685 76.113 C 209.154 76.667,208.463 78.105,208.150 79.309 C 207.836 80.512,207.117 82.178,206.552 83.012 C 205.987 83.845,205.330 85.256,205.094 86.149 C 204.857 87.041,204.345 88.126,203.956 88.560 C 203.074 89.544,201.972 91.691,201.972 92.428 C 201.972 92.732,201.532 93.457,200.994 94.038 C 200.455 94.618,199.720 96.109,199.360 97.350 C 198.999 98.590,198.304 100.138,197.814 100.789 C 197.325 101.440,196.615 103.126,196.236 104.536 C 195.792 106.192,195.222 107.355,194.626 107.818 C 194.119 108.213,193.505 109.276,193.261 110.181 C 193.017 111.086,192.408 112.236,191.907 112.737 C 191.406 113.238,190.786 114.523,190.530 115.594 C 190.273 116.665,189.567 118.164,188.962 118.926 C 188.249 119.822,187.696 121.187,187.392 122.796 C 187.031 124.711,186.726 125.369,186.065 125.659 C 185.506 125.904,184.974 126.763,184.539 128.122 C 184.171 129.270,183.446 130.714,182.926 131.331 C 182.407 131.948,181.746 133.316,181.457 134.372 C 181.169 135.428,180.442 136.861,179.842 137.557 C 179.147 138.364,178.651 139.509,178.473 140.713 C 178.296 141.918,177.803 143.053,177.115 143.843 C 176.522 144.524,175.822 145.975,175.560 147.067 C 175.298 148.159,174.827 149.151,174.514 149.271 C 173.912 149.502,172.387 152.699,172.387 153.728 C 172.387 154.061,171.866 154.927,171.230 155.651 C 170.489 156.494,169.976 157.615,169.804 158.763 C 169.647 159.810,169.081 161.129,168.445 161.929 C 167.846 162.683,167.155 164.094,166.911 165.066 C 166.666 166.037,166.034 167.264,165.505 167.793 C 164.976 168.322,164.254 169.749,163.900 170.965 C 163.547 172.181,163.115 173.176,162.940 173.176 C 162.584 173.176,160.951 176.779,160.940 177.588 C 160.936 177.873,160.402 178.889,159.755 179.844 C 159.107 180.800,158.383 182.304,158.145 183.187 C 157.908 184.069,157.318 185.261,156.835 185.834 C 156.353 186.408,155.733 187.478,155.458 188.212 C 154.767 190.055,154.365 190.876,153.260 192.695 C 152.736 193.558,152.193 194.940,152.053 195.765 C 151.914 196.591,151.386 197.758,150.880 198.359 C 150.374 198.960,149.652 200.611,149.274 202.027 C 148.788 203.851,148.348 204.708,147.765 204.964 C 147.286 205.175,146.695 206.066,146.348 207.101 C 146.021 208.077,145.191 209.733,144.504 210.780 C 143.817 211.828,143.130 213.425,142.977 214.331 C 142.825 215.236,142.293 216.462,141.794 217.057 C 141.295 217.651,140.668 219.115,140.400 220.311 C 139.847 222.782,139.623 222.922,138.642 221.400 C 138.258 220.804,137.712 220.178,137.431 220.010 C 137.149 219.842,136.622 218.645,136.258 217.349 C 135.895 216.054,135.194 214.559,134.702 214.028 C 134.209 213.496,133.508 212.166,133.145 211.072 C 132.782 209.978,132.081 208.766,131.589 208.379 C 131.048 207.953,130.497 206.856,130.198 205.608 C 129.925 204.471,129.277 202.914,128.756 202.148 C 128.236 201.381,127.811 200.656,127.811 200.536 C 127.811 199.514,126.384 195.826,125.651 194.955 C 125.146 194.355,124.540 193.159,124.304 192.297 C 124.068 191.435,123.341 189.931,122.689 188.955 C 122.036 187.978,121.502 186.976,121.501 186.727 C 121.500 186.478,120.886 185.058,120.136 183.571 C 119.387 182.084,118.576 180.093,118.334 179.146 C 118.092 178.199,117.480 177.010,116.974 176.504 C 116.468 175.998,115.754 174.681,115.387 173.578 C 115.021 172.476,114.324 171.090,113.838 170.501 C 113.352 169.911,112.715 168.554,112.422 167.485 C 112.130 166.417,111.487 165.085,110.995 164.527 C 110.502 163.968,109.691 163.014,109.192 162.406 L 108.284 161.301 57.199 161.323 C 29.103 161.335,5.715 161.344,5.227 161.343 C 4.739 161.342,4.339 161.519,4.339 161.736 C 4.339 161.997,21.685 162.130,55.589 162.130 C 83.776 162.130,107.118 162.237,107.460 162.368 C 108.064 162.600,111.637 167.646,111.637 168.268 C 111.637 168.439,112.947 171.255,114.549 174.526 C 116.150 177.797,117.781 181.361,118.173 182.446 C 118.565 183.531,119.178 184.804,119.536 185.277 C 119.893 185.749,120.508 186.979,120.902 188.009 C 121.296 189.040,122.024 190.482,122.520 191.214 C 123.017 191.945,123.633 193.201,123.890 194.004 C 124.146 194.807,124.693 196.022,125.105 196.706 C 125.516 197.389,126.186 198.914,126.592 200.096 C 126.999 201.277,127.794 203.113,128.360 204.176 C 128.926 205.239,129.389 206.312,129.389 206.560 C 129.389 206.809,129.975 207.875,130.693 208.930 C 131.410 209.985,132.232 211.469,132.519 212.229 C 132.807 212.988,133.524 214.586,134.114 215.779 C 134.703 216.972,135.523 218.907,135.936 220.079 C 137.187 223.631,140.731 225.204,140.816 222.245 C 140.823 222.004,141.369 220.762,142.030 219.484 C 142.690 218.205,143.579 216.072,144.003 214.742 C 144.428 213.412,145.019 212.122,145.316 211.875 C 145.613 211.629,146.236 210.385,146.700 209.111 C 147.165 207.837,147.791 206.590,148.091 206.340 C 148.684 205.849,151.602 200.063,153.179 196.252 C 155.494 190.660,156.173 189.203,156.959 188.140 C 157.416 187.521,157.791 186.901,157.791 186.763 C 157.791 186.625,158.692 184.621,159.793 182.309 C 160.895 179.998,162.419 176.775,163.180 175.148 C 163.942 173.521,164.898 171.568,165.306 170.809 C 165.715 170.049,166.500 168.452,167.053 167.258 C 167.605 166.065,168.237 164.822,168.457 164.497 C 168.676 164.172,169.211 163.107,169.645 162.130 C 170.079 161.154,170.948 159.290,171.577 157.988 C 172.206 156.686,174.265 152.426,176.152 148.521 C 178.039 144.615,180.197 140.089,180.947 138.462 C 181.698 136.834,182.910 134.260,183.642 132.742 C 184.373 131.223,185.156 129.381,185.382 128.647 C 185.608 127.914,186.226 126.913,186.755 126.423 C 187.284 125.933,187.905 124.846,188.134 124.008 C 188.363 123.171,188.918 121.886,189.368 121.155 C 189.818 120.423,190.556 118.825,191.009 117.604 C 191.462 116.384,192.136 114.994,192.507 114.516 C 192.878 114.038,193.406 112.841,193.682 111.856 C 193.958 110.872,194.594 109.656,195.096 109.154 C 195.598 108.652,196.399 107.186,196.877 105.896 C 197.354 104.606,198.050 103.107,198.423 102.564 C 198.796 102.022,199.330 100.868,199.610 100.000 C 199.890 99.132,200.714 97.298,201.440 95.924 C 202.167 94.550,202.761 93.198,202.761 92.921 C 202.761 92.643,203.294 91.746,203.945 90.927 C 204.596 90.108,205.128 89.256,205.128 89.035 C 205.128 88.813,205.948 86.929,206.949 84.848 C 210.931 76.575,211.440 75.468,211.440 75.075 C 211.440 74.850,211.912 73.976,212.488 73.132 C 213.065 72.288,213.950 70.549,214.456 69.267 C 214.961 67.986,215.629 66.654,215.940 66.309 C 216.251 65.963,216.888 64.704,217.354 63.511 C 218.302 61.089,220.142 57.032,221.380 54.635 C 221.828 53.767,222.724 51.992,223.370 50.690 C 224.017 49.389,224.869 47.869,225.264 47.313 C 225.660 46.758,226.109 45.781,226.264 45.144 C 226.418 44.506,227.115 42.830,227.813 41.420 C 228.511 40.010,229.293 38.205,229.551 37.408 C 229.810 36.612,230.260 35.762,230.553 35.519 C 230.845 35.276,231.490 34.064,231.986 32.825 C 232.482 31.586,233.298 30.023,233.801 29.351 C 234.303 28.680,234.714 28.003,234.714 27.847 C 234.714 22.758,240.090 22.136,241.391 27.074 C 241.627 27.971,242.099 28.936,242.439 29.218 C 243.046 29.722,247.383 38.379,247.917 40.153 C 248.067 40.649,248.616 41.803,249.139 42.717 C 249.662 43.631,250.091 44.663,250.094 45.010 C 250.096 45.357,250.665 46.422,251.357 47.377 C 252.049 48.331,252.951 50.000,253.362 51.085 C 253.773 52.170,254.337 53.323,254.615 53.649 C 255.128 54.250,257.464 59.396,258.782 62.831 C 259.180 63.868,260.052 65.540,260.719 66.548 C 261.387 67.555,261.933 68.581,261.933 68.827 C 261.933 69.072,262.441 70.075,263.062 71.054 C 263.683 72.033,264.412 73.532,264.682 74.386 C 264.953 75.239,265.661 76.824,266.256 77.909 C 266.851 78.994,267.644 80.812,268.019 81.948 C 268.393 83.085,268.876 84.124,269.092 84.257 C 269.308 84.391,270.099 85.769,270.850 87.319 C 271.600 88.870,272.557 90.759,272.976 91.519 C 273.915 93.220,276.741 99.644,277.138 100.981 C 277.299 101.521,277.842 102.586,278.347 103.348 C 278.851 104.110,279.476 105.355,279.737 106.114 C 279.997 106.874,280.596 108.028,281.068 108.679 C 281.539 109.329,282.158 110.483,282.443 111.243 C 282.727 112.002,283.445 113.511,284.037 114.596 C 284.629 115.680,285.338 117.278,285.613 118.146 C 285.888 119.014,286.601 120.611,287.198 121.696 C 287.795 122.781,288.410 124.112,288.564 124.655 C 288.718 125.197,289.325 126.174,289.912 126.824 C 290.499 127.475,291.281 129.009,291.650 130.233 C 292.019 131.457,292.575 132.669,292.884 132.926 C 293.194 133.184,293.749 134.312,294.117 135.435 C 294.729 137.299,296.695 141.541,298.081 143.984 C 299.375 146.266,302.723 153.403,303.356 155.227 C 304.331 158.040,306.204 161.062,307.325 161.631 C 308.563 162.260,395.661 162.363,395.661 161.736 C 395.661 161.519,395.261 161.339,394.773 161.336 C 394.285 161.334,380.306 161.312,363.708 161.288 C 347.110 161.264,327.592 161.133,320.334 160.997 L 307.137 160.750 306.434 158.783 C 306.047 157.701,305.401 156.370,304.999 155.824 C 304.596 155.279,304.041 153.890,303.765 152.738 C 303.489 151.587,302.848 150.150,302.340 149.547 C 301.832 148.944,301.050 147.469,300.602 146.271 C 300.153 145.072,299.449 143.786,299.037 143.414 C 298.625 143.041,298.076 141.852,297.817 140.773 C 297.558 139.693,296.959 138.332,296.486 137.748 C 296.013 137.164,295.314 135.665,294.932 134.416 C 294.551 133.167,293.804 131.677,293.273 131.104 C 292.742 130.531,292.308 129.826,292.308 129.536 C 292.308 128.427,291.019 125.858,290.357 125.648 C 289.897 125.502,289.379 124.450,288.821 122.530 C 288.358 120.936,287.712 119.410,287.385 119.139 C 287.059 118.868,286.436 117.453,286.001 115.994 C 285.567 114.535,284.854 113.017,284.417 112.622 C 283.980 112.227,283.412 111.178,283.154 110.291 C 282.897 109.404,282.281 108.134,281.785 107.468 C 281.289 106.802,280.607 105.471,280.269 104.509 C 279.930 103.548,279.241 102.136,278.737 101.373 C 278.233 100.609,277.533 98.995,277.182 97.786 C 276.830 96.577,276.179 95.125,275.734 94.560 C 275.289 93.994,274.681 92.722,274.384 91.732 C 274.086 90.743,273.293 89.307,272.621 88.543 C 271.950 87.778,271.400 86.845,271.400 86.470 C 271.400 85.717,269.927 82.773,269.374 82.419 C 269.181 82.296,268.692 80.999,268.286 79.536 C 267.880 78.072,267.206 76.487,266.787 76.012 C 266.368 75.537,265.718 74.132,265.343 72.890 C 264.968 71.649,264.313 70.389,263.888 70.091 C 263.463 69.794,262.859 68.700,262.547 67.660 C 262.234 66.621,261.499 65.271,260.913 64.659 C 260.196 63.911,259.744 62.886,259.528 61.519 C 259.351 60.403,258.783 58.930,258.264 58.246 C 257.745 57.562,257.018 56.086,256.649 54.967 C 256.279 53.848,255.571 52.495,255.075 51.960 C 254.580 51.425,253.942 50.160,253.659 49.148 C 253.375 48.135,252.737 46.987,252.240 46.597 C 251.667 46.146,251.102 44.982,250.696 43.415 C 250.344 42.056,249.636 40.297,249.122 39.506 C 248.609 38.714,247.971 37.319,247.705 36.405 C 247.439 35.490,246.803 34.350,246.293 33.870 C 245.782 33.391,245.365 32.767,245.365 32.484 C 245.365 31.352,244.064 28.813,243.371 28.593 C 242.842 28.425,242.506 27.705,242.178 26.039 C 241.459 22.383,237.853 20.206,235.922 22.261 M235.883 85.250 C 235.589 86.142,234.861 87.484,234.266 88.233 C 233.670 88.983,232.881 90.517,232.512 91.642 C 232.143 92.768,231.543 94.132,231.179 94.675 C 230.814 95.217,230.197 96.548,229.807 97.633 C 229.417 98.718,228.755 100.207,228.336 100.943 C 227.918 101.678,227.152 103.321,226.635 104.594 C 226.117 105.867,225.328 107.374,224.880 107.944 C 224.432 108.513,223.879 109.674,223.650 110.523 C 223.421 111.372,222.711 112.893,222.071 113.902 C 221.431 114.911,220.907 115.928,220.907 116.163 C 220.907 116.398,220.314 117.828,219.590 119.341 C 218.865 120.853,218.040 122.801,217.757 123.669 C 217.474 124.536,216.841 125.729,216.349 126.319 C 215.858 126.909,215.164 128.271,214.807 129.346 C 214.450 130.421,213.919 131.498,213.627 131.741 C 213.336 131.983,212.695 133.195,212.203 134.434 C 211.712 135.673,210.915 137.396,210.432 138.264 C 209.950 139.132,209.332 140.552,209.060 141.420 C 208.787 142.288,208.159 143.484,207.664 144.078 C 207.170 144.672,206.493 146.093,206.161 147.234 C 205.829 148.376,205.110 149.915,204.563 150.655 C 204.017 151.395,203.368 152.638,203.122 153.417 C 202.875 154.195,202.272 155.542,201.782 156.410 C 201.291 157.278,200.753 158.432,200.586 158.974 C 200.299 159.906,197.100 166.535,195.066 170.414 C 193.777 172.871,190.533 179.898,188.747 184.102 C 188.268 185.229,187.424 186.689,186.871 187.346 C 186.319 188.003,185.650 189.210,185.385 190.029 C 185.120 190.849,184.484 192.243,183.972 193.128 C 183.460 194.013,182.701 195.727,182.285 196.935 C 181.869 198.144,181.260 199.550,180.931 200.060 C 180.602 200.569,180.020 201.785,179.637 202.761 C 179.253 203.738,178.442 205.229,177.833 206.075 C 177.224 206.921,176.726 207.809,176.726 208.047 C 176.726 208.286,175.951 210.079,175.004 212.032 C 174.058 213.984,172.771 216.724,172.144 218.119 C 171.168 220.294,169.444 223.753,165.740 230.966 C 164.447 233.485,162.509 237.816,161.890 239.569 C 161.577 240.457,161.066 241.465,160.755 241.808 C 160.444 242.152,159.723 243.492,159.153 244.787 C 158.583 246.081,157.872 247.414,157.572 247.748 C 157.273 248.083,156.597 249.503,156.069 250.904 C 155.541 252.305,154.836 253.984,154.503 254.635 C 154.169 255.286,152.801 258.037,151.461 260.750 C 150.121 263.462,148.607 266.479,148.096 267.456 C 146.759 270.009,144.519 274.981,144.185 276.134 C 144.028 276.677,143.402 277.919,142.794 278.895 C 142.186 279.872,141.466 281.427,141.194 282.352 C 140.193 285.762,136.524 285.568,135.509 282.051 C 135.195 280.965,132.550 275.154,131.379 272.978 C 129.743 269.939,125.838 262.045,125.838 261.776 C 125.838 261.482,123.504 256.353,122.409 254.241 C 118.085 245.901,115.502 240.501,114.612 237.942 C 114.287 237.006,113.658 235.731,113.215 235.108 C 112.772 234.486,112.142 233.219,111.815 232.291 C 111.488 231.364,110.692 229.784,110.048 228.779 C 109.403 227.775,108.876 226.825,108.876 226.669 C 108.876 226.398,106.053 220.166,103.051 213.807 C 102.282 212.179,101.349 210.404,100.977 209.862 C 100.605 209.320,100.166 208.432,100.000 207.890 C 99.835 207.347,98.996 205.394,98.135 203.550 C 97.274 201.706,95.990 198.955,95.282 197.436 C 94.574 195.917,93.767 194.089,93.490 193.373 C 93.198 192.621,92.261 191.573,91.271 190.892 L 89.557 189.713 47.047 189.726 C 4.813 189.740,4.536 189.745,4.410 190.531 C 4.285 191.318,4.472 191.321,47.042 191.321 L 89.799 191.321 91.382 192.677 C 92.668 193.777,93.097 194.517,93.663 196.606 C 94.046 198.022,94.610 199.388,94.915 199.642 C 95.221 199.896,95.745 201.045,96.080 202.197 C 96.415 203.349,97.133 204.945,97.675 205.745 C 98.218 206.544,98.937 208.020,99.273 209.023 C 99.609 210.027,100.299 211.399,100.806 212.073 C 101.313 212.747,102.089 214.325,102.531 215.581 C 102.972 216.837,103.581 218.150,103.884 218.498 C 104.187 218.847,104.747 220.108,105.127 221.302 C 105.508 222.495,106.214 224.004,106.696 224.655 C 107.178 225.306,107.798 226.548,108.075 227.416 C 108.351 228.284,108.992 229.440,109.499 229.985 C 110.006 230.530,110.789 232.166,111.238 233.621 C 111.688 235.076,112.332 236.421,112.671 236.610 C 113.009 236.800,113.622 238.168,114.034 239.651 C 114.445 241.134,115.211 242.982,115.736 243.757 C 116.261 244.533,116.811 245.745,116.957 246.450 C 117.103 247.155,117.830 248.459,118.572 249.347 C 119.314 250.235,119.921 251.187,119.921 251.461 C 119.921 251.735,120.430 252.917,121.052 254.086 C 121.673 255.256,122.479 257.241,122.842 258.497 C 123.205 259.753,123.864 261.142,124.306 261.584 C 124.748 262.026,125.367 263.253,125.681 264.311 C 125.995 265.369,126.705 266.773,127.259 267.431 C 127.813 268.089,128.447 269.296,128.669 270.113 C 128.890 270.929,129.518 272.189,130.063 272.911 C 130.608 273.633,131.288 275.109,131.573 276.190 C 131.858 277.271,132.415 278.613,132.811 279.173 C 133.920 280.740,134.017 280.947,134.503 282.764 C 135.733 287.373,140.731 287.423,142.050 282.840 C 142.331 281.864,142.946 280.697,143.415 280.247 C 143.885 279.797,144.582 278.466,144.965 277.289 C 145.348 276.111,145.986 274.789,146.384 274.351 C 146.781 273.913,147.368 272.437,147.686 271.070 C 148.065 269.447,148.608 268.269,149.251 267.673 C 149.793 267.170,150.461 265.984,150.735 265.037 C 151.009 264.089,151.725 262.739,152.326 262.037 C 152.927 261.334,153.611 260.044,153.847 259.169 C 154.083 258.294,154.701 256.951,155.220 256.185 C 155.740 255.419,156.362 253.845,156.602 252.687 C 156.843 251.529,157.382 250.271,157.801 249.892 C 158.221 249.513,158.935 248.206,159.389 246.988 C 159.843 245.770,160.535 244.418,160.926 243.984 C 161.893 242.911,162.525 241.624,162.525 240.725 C 162.525 240.314,163.077 239.143,163.752 238.124 C 164.428 237.104,165.147 235.521,165.351 234.605 C 165.554 233.688,166.144 232.318,166.660 231.558 C 167.177 230.799,167.905 229.379,168.278 228.402 C 168.651 227.426,169.290 226.255,169.697 225.800 C 170.105 225.345,170.759 224.103,171.152 223.039 C 171.544 221.975,172.337 220.414,172.915 219.570 C 173.492 218.726,173.964 217.727,173.964 217.350 C 173.964 216.352,175.004 214.023,175.711 213.436 C 176.046 213.158,176.668 211.772,177.093 210.356 C 177.517 208.940,178.283 207.318,178.793 206.751 C 179.304 206.184,179.960 205.010,180.252 204.142 C 180.544 203.274,181.194 202.070,181.698 201.467 C 182.577 200.413,183.425 198.129,183.430 196.803 C 183.431 196.455,183.867 195.701,184.400 195.126 C 185.329 194.123,186.186 191.879,186.191 190.437 C 186.192 190.059,186.699 189.299,187.318 188.748 C 187.936 188.197,188.677 186.997,188.964 186.082 C 189.251 185.167,189.898 183.966,190.401 183.413 C 190.905 182.860,191.601 181.440,191.948 180.257 C 192.295 179.074,192.909 177.749,193.311 177.313 C 193.714 176.876,194.302 175.545,194.618 174.354 C 195.364 171.543,195.669 170.809,196.089 170.809 C 196.503 170.809,198.028 167.915,198.028 167.131 C 198.028 166.827,198.548 165.923,199.184 165.123 C 199.820 164.322,200.457 163.099,200.600 162.406 C 200.742 161.712,201.443 159.990,202.157 158.580 C 202.871 157.170,203.578 155.448,203.727 154.754 C 203.876 154.060,204.516 152.841,205.150 152.044 C 206.232 150.682,207.093 148.504,207.098 147.115 C 207.100 146.776,207.608 146.013,208.227 145.419 C 208.847 144.825,209.566 143.634,209.824 142.771 C 210.083 141.908,210.686 140.625,211.164 139.920 C 211.643 139.215,212.278 137.666,212.575 136.479 C 212.906 135.157,213.483 134.014,214.063 133.531 C 214.724 132.979,215.161 131.992,215.512 130.254 C 215.909 128.290,216.216 127.665,216.970 127.289 C 217.629 126.960,218.098 126.202,218.480 124.846 C 218.785 123.765,219.421 122.419,219.894 121.855 C 220.368 121.292,220.985 119.783,221.266 118.502 C 221.624 116.870,222.114 115.861,222.901 115.128 C 223.736 114.352,224.094 113.566,224.292 112.077 C 224.480 110.654,224.879 109.735,225.666 108.911 C 226.276 108.273,226.994 106.983,227.260 106.045 C 227.527 105.107,228.150 103.895,228.645 103.353 C 229.140 102.811,229.812 101.340,230.139 100.085 C 230.466 98.830,231.096 97.343,231.539 96.779 C 231.982 96.216,232.698 94.569,233.129 93.119 C 233.567 91.651,234.328 90.094,234.848 89.606 C 235.361 89.124,235.989 88.036,236.242 87.189 L 236.704 85.649 238.129 86.142 C 239.329 86.558,239.673 86.956,240.313 88.673 C 240.731 89.793,241.501 91.046,242.023 91.457 C 242.654 91.954,243.058 92.782,243.229 93.932 C 243.370 94.883,243.927 96.460,244.468 97.436 C 245.008 98.412,245.791 100.187,246.209 101.380 C 246.626 102.573,247.378 104.171,247.880 104.930 C 248.382 105.690,249.009 106.971,249.274 107.777 C 249.539 108.583,250.159 109.559,250.651 109.947 C 251.208 110.385,251.797 111.589,252.210 113.135 C 252.575 114.502,253.298 116.277,253.817 117.080 C 254.336 117.883,254.887 119.162,255.041 119.921 C 255.383 121.601,256.341 123.565,257.011 123.959 C 257.283 124.119,257.623 124.741,257.767 125.340 C 257.910 125.940,258.625 127.318,259.356 128.402 C 260.087 129.487,260.874 131.095,261.106 131.976 C 261.338 132.857,262.042 134.366,262.669 135.329 C 263.296 136.293,263.927 137.741,264.070 138.549 C 264.214 139.356,264.744 140.510,265.248 141.113 C 265.752 141.716,266.300 142.653,266.466 143.195 C 266.804 144.296,268.516 147.527,269.070 148.107 C 269.267 148.313,269.428 148.730,269.428 149.033 C 269.428 149.814,270.614 152.318,271.426 153.254 C 271.803 153.688,272.416 155.144,272.788 156.490 C 273.161 157.836,273.798 159.237,274.204 159.604 C 274.610 159.972,275.233 161.310,275.589 162.579 C 275.945 163.848,276.632 165.287,277.114 165.777 C 277.597 166.266,278.301 167.608,278.680 168.759 C 279.058 169.910,279.779 171.295,280.281 171.837 C 280.783 172.379,281.405 173.702,281.663 174.778 C 281.921 175.854,282.535 177.328,283.027 178.054 C 283.519 178.779,284.222 180.276,284.589 181.380 C 284.956 182.484,285.644 183.876,286.119 184.474 C 286.594 185.072,287.252 186.280,287.582 187.159 C 288.009 188.298,288.730 189.126,290.092 190.039 L 292.002 191.321 343.859 191.321 C 395.681 191.321,395.716 191.321,395.590 190.524 C 395.464 189.728,395.348 189.726,344.122 189.738 C 283.223 189.751,290.354 190.501,287.025 183.732 C 285.808 181.259,284.813 179.103,284.813 178.942 C 284.813 178.630,282.352 173.242,281.458 171.598 C 279.058 167.181,272.978 154.280,272.978 153.603 C 272.978 153.388,272.471 152.412,271.852 151.435 C 271.232 150.459,270.426 148.758,270.060 147.657 C 269.695 146.556,269.054 145.346,268.638 144.969 C 268.221 144.592,267.673 143.639,267.421 142.852 C 267.169 142.064,266.555 140.621,266.056 139.645 C 264.052 135.720,261.144 129.502,261.144 129.140 C 261.144 128.928,260.642 128.054,260.028 127.198 C 259.413 126.342,258.676 125.020,258.388 124.260 C 258.101 123.501,257.535 122.321,257.130 121.638 C 256.726 120.954,256.047 119.383,255.621 118.146 C 255.196 116.909,254.511 115.338,254.099 114.654 C 253.687 113.971,253.129 112.702,252.859 111.834 C 252.589 110.966,251.972 109.724,251.488 109.073 C 251.004 108.422,249.686 105.848,248.558 103.353 C 247.431 100.858,246.006 97.751,245.391 96.450 C 244.776 95.148,244.166 93.618,244.036 93.051 C 243.905 92.483,243.210 91.151,242.490 90.092 C 241.771 89.032,240.871 87.337,240.491 86.323 C 239.959 84.902,239.522 84.384,238.579 84.055 C 236.701 83.400,236.458 83.508,235.883 85.250 " stroke="none" fill="#848c91" fill-rule="evenodd"></path><path id="path4" d="M235.552 25.616 C 235.091 26.686,234.714 27.690,234.714 27.847 C 234.714 28.003,234.303 28.680,233.801 29.351 C 233.298 30.023,232.482 31.586,231.986 32.825 C 231.490 34.064,230.845 35.276,230.553 35.519 C 230.260 35.762,229.810 36.612,229.551 37.408 C 229.293 38.205,228.511 40.010,227.813 41.420 C 227.115 42.830,226.418 44.506,226.264 45.144 C 226.109 45.781,225.660 46.758,225.264 47.313 C 224.869 47.869,224.017 49.389,223.370 50.690 C 222.724 51.992,221.828 53.767,221.380 54.635 C 220.142 57.032,218.302 61.089,217.354 63.511 C 216.888 64.704,216.251 65.963,215.940 66.309 C 215.629 66.654,214.961 67.986,214.456 69.267 C 213.950 70.549,213.065 72.288,212.488 73.132 C 211.912 73.976,211.440 74.850,211.440 75.075 C 211.440 75.468,210.931 76.575,206.949 84.848 C 205.948 86.929,205.128 88.813,205.128 89.035 C 205.128 89.256,204.596 90.108,203.945 90.927 C 203.294 91.746,202.761 92.643,202.761 92.921 C 202.761 93.198,202.167 94.550,201.440 95.924 C 200.714 97.298,199.890 99.132,199.610 100.000 C 199.330 100.868,198.796 102.022,198.423 102.564 C 198.050 103.107,197.354 104.606,196.877 105.896 C 196.399 107.186,195.598 108.652,195.096 109.154 C 194.594 109.656,193.958 110.872,193.682 111.856 C 193.406 112.841,192.878 114.038,192.507 114.516 C 192.136 114.994,191.462 116.384,191.009 117.604 C 190.556 118.825,189.818 120.423,189.368 121.155 C 188.918 121.886,188.363 123.171,188.134 124.008 C 187.905 124.846,187.284 125.933,186.755 126.423 C 186.226 126.913,185.608 127.914,185.382 128.647 C 185.156 129.381,184.373 131.223,183.642 132.742 C 182.910 134.260,181.698 136.834,180.947 138.462 C 180.197 140.089,178.039 144.615,176.152 148.521 C 174.265 152.426,172.206 156.686,171.577 157.988 C 170.948 159.290,170.079 161.154,169.645 162.130 C 169.211 163.107,168.676 164.172,168.457 164.497 C 168.237 164.822,167.605 166.065,167.053 167.258 C 166.500 168.452,165.715 170.049,165.306 170.809 C 164.898 171.568,163.942 173.521,163.180 175.148 C 162.419 176.775,160.895 179.998,159.793 182.309 C 158.692 184.621,157.791 186.625,157.791 186.763 C 157.791 186.901,157.416 187.521,156.959 188.140 C 156.173 189.203,155.494 190.660,153.179 196.252 C 151.602 200.063,148.684 205.849,148.091 206.340 C 147.791 206.590,147.165 207.837,146.700 209.111 C 146.236 210.385,145.613 211.629,145.316 211.875 C 145.019 212.122,144.428 213.412,144.003 214.742 C 143.579 216.072,142.690 218.205,142.030 219.484 C 141.369 220.762,140.823 222.004,140.816 222.245 C 140.731 225.204,137.187 223.631,135.936 220.079 C 135.523 218.907,134.703 216.972,134.114 215.779 C 133.524 214.586,132.807 212.988,132.519 212.229 C 132.232 211.469,131.410 209.985,130.693 208.930 C 129.975 207.875,129.389 206.809,129.389 206.560 C 129.389 206.312,128.926 205.239,128.360 204.176 C 127.794 203.113,126.999 201.277,126.592 200.096 C 126.186 198.914,125.516 197.389,125.105 196.706 C 124.693 196.022,124.146 194.807,123.890 194.004 C 123.633 193.201,123.017 191.945,122.520 191.214 C 122.024 190.482,121.296 189.040,120.902 188.009 C 120.508 186.979,119.893 185.749,119.536 185.277 C 119.178 184.804,118.565 183.531,118.173 182.446 C 117.781 181.361,116.150 177.797,114.549 174.526 C 112.947 171.255,111.637 168.439,111.637 168.268 C 111.637 167.646,108.064 162.600,107.460 162.368 C 107.118 162.237,83.732 162.173,55.490 162.225 L 4.142 162.320 55.819 162.526 C 84.241 162.639,107.526 162.774,107.563 162.826 C 108.551 164.177,111.243 168.429,111.243 168.638 C 111.243 168.796,112.148 170.814,113.255 173.122 C 114.361 175.429,115.681 178.205,116.188 179.290 C 119.445 186.258,121.707 190.862,122.295 191.716 C 122.668 192.258,123.102 193.146,123.260 193.688 C 123.633 194.975,125.500 199.278,127.662 203.836 C 128.612 205.837,129.389 207.633,129.389 207.825 C 129.389 208.018,129.911 208.832,130.548 209.635 C 131.186 210.438,132.007 212.016,132.372 213.141 C 132.737 214.267,133.356 215.720,133.746 216.371 C 134.137 217.022,134.848 218.619,135.326 219.921 C 136.391 222.817,138.235 224.852,139.796 224.852 C 140.106 224.852,144.270 216.080,144.560 214.817 C 144.706 214.179,145.157 213.193,145.561 212.625 C 145.966 212.057,146.639 210.691,147.057 209.590 C 147.476 208.489,148.258 206.990,148.797 206.260 C 149.335 205.529,150.012 204.310,150.302 203.550 C 150.591 202.791,151.159 201.688,151.564 201.100 C 151.969 200.512,152.651 199.012,153.079 197.768 C 153.507 196.524,154.093 195.141,154.382 194.696 C 154.671 194.250,155.304 192.821,155.788 191.519 C 156.272 190.217,156.896 188.886,157.176 188.560 C 157.652 188.005,160.475 182.279,163.592 175.542 C 164.345 173.915,165.283 171.963,165.675 171.203 C 167.065 168.513,170.521 161.500,171.798 158.777 C 172.510 157.258,175.137 151.844,177.635 146.746 C 180.133 141.647,182.301 137.032,182.454 136.489 C 182.606 135.947,183.227 134.615,183.833 133.531 C 184.439 132.446,185.159 130.759,185.432 129.783 C 185.706 128.807,186.413 127.475,187.004 126.824 C 187.595 126.174,188.207 125.197,188.363 124.655 C 188.520 124.112,189.150 122.692,189.764 121.499 C 191.480 118.162,194.477 111.444,194.477 110.935 C 194.477 110.686,195.010 109.875,195.661 109.133 C 196.312 108.392,196.844 107.643,196.844 107.468 C 196.844 106.970,202.485 94.656,203.970 91.913 C 205.055 89.908,208.950 81.941,210.527 78.501 C 211.273 76.874,212.222 74.921,212.635 74.162 C 213.048 73.402,213.751 71.982,214.198 71.006 C 214.644 70.030,215.271 68.743,215.591 68.146 C 217.071 65.390,217.432 64.636,219.138 60.750 C 220.137 58.471,221.825 54.921,222.887 52.860 C 226.778 45.312,228.837 40.944,229.826 38.143 C 230.139 37.255,230.643 36.253,230.946 35.917 C 231.248 35.581,231.874 34.344,232.336 33.168 C 232.799 31.993,233.509 30.565,233.915 29.995 C 234.320 29.425,235.100 27.946,235.648 26.708 C 236.612 24.527,236.690 24.458,238.176 24.458 C 239.819 24.458,239.940 24.590,241.224 27.805 C 241.570 28.670,242.185 29.735,242.593 30.172 C 243.000 30.609,243.701 31.904,244.151 33.050 C 244.601 34.196,245.229 35.531,245.546 36.015 C 245.864 36.500,246.395 37.666,246.727 38.608 C 247.536 40.900,250.804 47.633,251.237 47.901 C 251.427 48.019,252.080 49.316,252.688 50.783 C 253.296 52.251,253.994 53.718,254.239 54.043 C 254.484 54.369,255.008 55.434,255.403 56.410 C 256.321 58.675,258.205 62.803,259.365 65.089 C 264.363 74.935,267.205 80.921,267.838 82.933 C 268.093 83.744,268.483 84.519,268.705 84.656 C 268.927 84.793,269.619 86.043,270.243 87.434 C 270.867 88.825,271.827 90.552,272.375 91.272 C 272.924 91.991,273.373 92.834,273.373 93.145 C 273.373 93.456,273.966 94.948,274.691 96.461 C 275.415 97.973,276.239 99.921,276.520 100.789 C 276.802 101.657,277.349 102.819,277.736 103.371 C 278.123 103.923,278.903 105.343,279.470 106.526 C 280.036 107.710,280.837 109.300,281.250 110.059 C 282.501 112.364,285.207 118.124,285.207 118.483 C 285.207 119.268,289.199 126.955,289.708 127.151 C 290.014 127.268,290.558 128.376,290.918 129.612 C 291.277 130.849,292.073 132.769,292.686 133.879 C 293.299 134.989,294.021 136.594,294.291 137.445 C 294.775 138.975,297.355 144.049,298.618 145.957 C 298.977 146.499,299.502 147.564,299.785 148.323 C 300.069 149.083,300.786 150.680,301.379 151.874 C 301.972 153.067,302.685 154.753,302.963 155.621 C 303.681 157.859,305.653 161.250,306.638 161.940 C 307.366 162.450,313.140 162.513,351.666 162.430 L 395.858 162.336 351.638 162.134 C 315.629 161.970,307.301 161.835,306.786 161.408 C 305.941 160.706,303.988 157.189,303.354 155.227 C 302.878 153.752,299.329 146.186,298.081 143.984 C 296.694 141.539,294.728 137.299,294.117 135.435 C 293.749 134.312,293.194 133.184,292.884 132.926 C 292.575 132.669,292.019 131.457,291.650 130.233 C 291.281 129.009,290.499 127.475,289.912 126.824 C 289.325 126.174,288.718 125.197,288.564 124.655 C 288.410 124.112,287.795 122.781,287.198 121.696 C 286.601 120.611,285.888 119.014,285.613 118.146 C 285.338 117.278,284.629 115.680,284.037 114.596 C 283.445 113.511,282.727 112.002,282.443 111.243 C 282.158 110.483,281.539 109.329,281.068 108.679 C 280.596 108.028,279.997 106.874,279.737 106.114 C 279.476 105.355,278.851 104.110,278.347 103.348 C 277.842 102.586,277.299 101.521,277.138 100.981 C 276.741 99.644,273.915 93.220,272.976 91.519 C 272.557 90.759,271.600 88.870,270.850 87.319 C 270.099 85.769,269.308 84.391,269.092 84.257 C 268.876 84.124,268.393 83.085,268.019 81.948 C 267.644 80.812,266.851 78.994,266.256 77.909 C 265.661 76.824,264.953 75.239,264.682 74.386 C 264.412 73.532,263.683 72.033,263.062 71.054 C 262.441 70.075,261.933 69.072,261.933 68.827 C 261.933 68.581,261.387 67.555,260.719 66.548 C 260.052 65.540,259.180 63.868,258.782 62.831 C 257.464 59.396,255.128 54.250,254.615 53.649 C 254.337 53.323,253.773 52.170,253.362 51.085 C 252.951 50.000,252.049 48.331,251.357 47.377 C 250.665 46.422,250.096 45.357,250.094 45.010 C 250.091 44.663,249.662 43.631,249.139 42.717 C 248.616 41.803,248.067 40.649,247.917 40.153 C 247.383 38.379,243.046 29.722,242.439 29.218 C 242.099 28.936,241.627 27.971,241.391 27.074 C 240.285 22.874,237.076 22.072,235.552 25.616 M235.329 85.306 C 234.742 86.662,233.950 88.126,233.568 88.560 C 233.186 88.994,232.551 90.237,232.157 91.321 C 231.763 92.406,231.143 93.738,230.779 94.280 C 230.416 94.822,229.886 95.888,229.602 96.647 C 228.790 98.818,223.332 110.519,222.425 112.032 C 222.230 112.357,221.621 113.600,221.071 114.793 C 220.522 115.986,219.565 118.028,218.945 119.329 C 218.326 120.631,217.599 122.406,217.331 123.274 C 217.062 124.142,216.455 125.385,215.981 126.036 C 215.508 126.686,214.810 128.060,214.432 129.089 C 214.054 130.117,213.580 131.060,213.378 131.185 C 212.935 131.458,209.347 138.995,208.657 141.102 C 208.386 141.928,207.770 143.136,207.288 143.787 C 206.805 144.438,206.117 145.875,205.758 146.980 C 205.399 148.086,204.667 149.585,204.131 150.311 C 203.594 151.038,203.156 151.793,203.156 151.989 C 203.156 152.185,202.464 153.792,201.619 155.561 C 199.255 160.507,196.844 165.914,196.844 166.271 C 196.844 166.448,196.426 167.141,195.915 167.813 C 195.405 168.484,194.066 171.075,192.941 173.570 C 191.816 176.065,190.467 178.994,189.942 180.079 C 189.418 181.164,188.637 182.892,188.208 183.918 C 187.778 184.945,186.972 186.382,186.416 187.112 C 185.859 187.841,185.407 188.598,185.411 188.795 C 185.414 188.991,184.713 190.572,183.851 192.308 C 182.990 194.043,181.378 197.494,180.268 199.977 C 179.158 202.459,177.931 204.944,177.540 205.499 C 177.149 206.055,176.693 206.953,176.526 207.495 C 176.360 208.037,175.493 209.902,174.601 211.638 C 173.708 213.375,172.552 215.771,172.031 216.964 C 171.011 219.298,166.391 228.755,165.479 230.375 C 164.488 232.136,161.835 238.029,161.365 239.515 C 161.113 240.311,160.667 241.161,160.374 241.404 C 160.082 241.647,159.437 242.859,158.941 244.098 C 158.445 245.337,157.649 246.884,157.172 247.535 C 156.695 248.185,156.172 249.162,156.010 249.704 C 155.557 251.222,151.132 260.491,147.724 267.061 C 145.783 270.802,144.658 273.250,143.956 275.262 C 143.555 276.409,142.890 277.829,142.478 278.418 C 142.066 279.006,141.427 280.405,141.060 281.528 C 139.775 285.446,137.278 285.004,135.499 280.542 C 134.922 279.094,134.131 277.377,133.742 276.726 C 133.353 276.075,132.826 274.889,132.571 274.090 C 132.315 273.291,131.584 271.980,130.945 271.176 C 130.306 270.372,129.783 269.498,129.783 269.234 C 129.783 268.970,129.074 267.352,128.207 265.639 C 127.340 263.926,126.630 262.347,126.629 262.130 C 126.627 261.746,124.059 256.220,122.779 253.846 C 122.428 253.195,121.621 251.598,120.984 250.296 C 120.348 248.994,119.525 247.485,119.156 246.943 C 118.787 246.400,118.163 245.069,117.771 243.984 C 117.378 242.899,116.746 241.479,116.367 240.828 C 115.988 240.178,115.458 238.935,115.190 238.067 C 114.922 237.199,114.196 235.683,113.576 234.697 C 112.956 233.712,112.181 232.147,111.854 231.219 C 111.527 230.292,110.910 229.043,110.482 228.443 C 110.055 227.843,109.327 226.390,108.863 225.214 C 107.380 221.451,102.337 210.899,101.303 209.395 C 100.903 208.813,100.315 207.570,99.997 206.634 C 99.679 205.697,98.981 204.043,98.445 202.959 C 97.910 201.874,96.407 198.742,95.105 196.000 C 93.106 191.789,92.505 190.868,91.240 190.083 L 89.744 189.152 47.041 189.037 C 17.552 188.957,4.339 189.049,4.339 189.334 C 4.339 189.618,17.586 189.741,46.948 189.729 L 89.557 189.713 91.271 190.892 C 92.261 191.573,93.198 192.621,93.490 193.373 C 93.767 194.089,94.574 195.917,95.282 197.436 C 95.990 198.955,97.274 201.706,98.135 203.550 C 98.996 205.394,99.835 207.347,100.000 207.890 C 100.166 208.432,100.605 209.320,100.977 209.862 C 101.349 210.404,102.282 212.179,103.051 213.807 C 106.053 220.166,108.876 226.398,108.876 226.669 C 108.876 226.825,109.403 227.775,110.048 228.779 C 110.692 229.784,111.488 231.364,111.815 232.291 C 112.142 233.219,112.772 234.486,113.215 235.108 C 113.658 235.731,114.287 237.006,114.612 237.942 C 115.502 240.501,118.085 245.901,122.409 254.241 C 123.504 256.353,125.838 261.482,125.838 261.776 C 125.838 262.045,129.743 269.939,131.379 272.978 C 132.550 275.154,135.195 280.965,135.509 282.051 C 136.524 285.568,140.193 285.762,141.194 282.352 C 141.466 281.427,142.186 279.872,142.794 278.895 C 143.402 277.919,144.028 276.677,144.185 276.134 C 144.519 274.981,146.759 270.009,148.096 267.456 C 148.607 266.479,150.121 263.462,151.461 260.750 C 152.801 258.037,154.169 255.286,154.503 254.635 C 154.836 253.984,155.541 252.305,156.069 250.904 C 156.597 249.503,157.273 248.083,157.572 247.748 C 157.872 247.414,158.583 246.081,159.153 244.787 C 159.723 243.492,160.444 242.152,160.755 241.808 C 161.066 241.465,161.577 240.457,161.890 239.569 C 162.509 237.816,164.447 233.485,165.740 230.966 C 169.444 223.753,171.168 220.294,172.144 218.119 C 172.771 216.724,174.058 213.984,175.004 212.032 C 175.951 210.079,176.726 208.286,176.726 208.047 C 176.726 207.809,177.224 206.921,177.833 206.075 C 178.442 205.229,179.253 203.738,179.637 202.761 C 180.020 201.785,180.602 200.569,180.931 200.060 C 181.260 199.550,181.869 198.144,182.285 196.935 C 182.701 195.727,183.460 194.013,183.972 193.128 C 184.484 192.243,185.120 190.849,185.385 190.029 C 185.650 189.210,186.319 188.003,186.871 187.346 C 187.424 186.689,188.268 185.229,188.747 184.102 C 190.533 179.898,193.777 172.871,195.066 170.414 C 197.100 166.535,200.299 159.906,200.586 158.974 C 200.753 158.432,201.291 157.278,201.782 156.410 C 202.272 155.542,202.875 154.195,203.122 153.417 C 203.368 152.638,204.017 151.395,204.563 150.655 C 205.110 149.915,205.829 148.376,206.161 147.234 C 206.493 146.093,207.170 144.672,207.664 144.078 C 208.159 143.484,208.787 142.288,209.060 141.420 C 209.332 140.552,209.950 139.132,210.432 138.264 C 210.915 137.396,211.712 135.673,212.203 134.434 C 212.695 133.195,213.336 131.983,213.627 131.741 C 213.919 131.498,214.450 130.421,214.807 129.346 C 215.164 128.271,215.858 126.909,216.349 126.319 C 216.841 125.729,217.474 124.536,217.757 123.669 C 218.040 122.801,218.865 120.853,219.590 119.341 C 220.314 117.828,220.907 116.398,220.907 116.163 C 220.907 115.928,221.431 114.911,222.071 113.902 C 222.711 112.893,223.421 111.372,223.650 110.523 C 223.879 109.674,224.432 108.513,224.880 107.944 C 225.328 107.374,226.117 105.867,226.635 104.594 C 227.152 103.321,227.918 101.678,228.336 100.943 C 228.755 100.207,229.417 98.718,229.807 97.633 C 230.197 96.548,230.814 95.217,231.179 94.675 C 231.543 94.132,232.143 92.768,232.512 91.642 C 232.881 90.517,233.670 88.983,234.266 88.233 C 234.861 87.484,235.589 86.142,235.883 85.250 C 236.458 83.508,236.701 83.400,238.579 84.055 C 239.522 84.384,239.959 84.902,240.491 86.323 C 240.871 87.337,241.771 89.032,242.490 90.092 C 243.210 91.151,243.905 92.483,244.036 93.051 C 244.166 93.618,244.776 95.148,245.391 96.450 C 246.006 97.751,247.431 100.858,248.558 103.353 C 249.686 105.848,251.004 108.422,251.488 109.073 C 251.972 109.724,252.589 110.966,252.859 111.834 C 253.129 112.702,253.687 113.971,254.099 114.654 C 254.511 115.338,255.196 116.909,255.621 118.146 C 256.047 119.383,256.726 120.954,257.130 121.638 C 257.535 122.321,258.101 123.501,258.388 124.260 C 258.676 125.020,259.413 126.342,260.028 127.198 C 260.642 128.054,261.144 128.928,261.144 129.140 C 261.144 129.502,264.052 135.720,266.056 139.645 C 266.555 140.621,267.169 142.064,267.421 142.852 C 267.673 143.639,268.221 144.592,268.638 144.969 C 269.054 145.346,269.695 146.556,270.060 147.657 C 270.426 148.758,271.232 150.459,271.852 151.435 C 272.471 152.412,272.978 153.388,272.978 153.603 C 272.978 154.280,279.058 167.181,281.458 171.598 C 282.352 173.242,284.813 178.630,284.813 178.942 C 284.813 180.852,289.408 188.304,291.009 188.990 C 293.028 189.855,395.661 190.202,395.661 189.343 C 395.661 189.090,377.678 188.955,344.032 188.955 C 283.379 188.955,290.461 189.668,287.375 183.249 C 286.183 180.768,285.207 178.630,285.207 178.497 C 285.207 178.212,282.633 172.631,281.843 171.203 C 280.661 169.066,276.529 160.676,276.529 160.413 C 276.529 160.259,275.907 158.852,275.148 157.287 C 274.389 155.721,273.767 154.252,273.767 154.022 C 273.767 153.791,273.162 152.597,272.422 151.368 C 271.682 150.139,270.787 148.263,270.433 147.197 C 270.079 146.132,269.449 144.952,269.032 144.575 C 268.615 144.197,268.066 143.245,267.813 142.457 C 267.559 141.670,266.043 138.355,264.445 135.090 C 262.846 131.825,261.538 128.965,261.538 128.734 C 261.538 128.503,261.006 127.643,260.355 126.824 C 259.704 126.005,259.172 125.175,259.172 124.980 C 259.172 124.415,253.561 111.999,252.073 109.270 C 250.117 105.684,247.578 100.192,244.531 92.956 C 243.904 91.468,242.964 89.743,242.441 89.122 C 241.919 88.501,241.189 87.082,240.820 85.970 C 240.274 84.327,239.899 83.842,238.824 83.393 C 236.749 82.526,236.463 82.682,235.329 85.306 " stroke="none" fill="#98a4a8" fill-rule="evenodd"></path></g></svg>